<?xml version="1.0" encoding="UTF-8"?>
<svg width="200px" height="200px" viewBox="0 0 200 200" version="1.1" xmlns="http://www.w3.org/2000/svg" xmlns:xlink="http://www.w3.org/1999/xlink">
    <title>CostSaving</title>
    <defs>
        <linearGradient x1="23.2823366%" y1="9.14127424%" x2="78.9707928%" y2="92.7977839%" id="linearGradient-1">
            <stop stop-color="#83A6FF" offset="0%"></stop>
            <stop stop-color="#5A78FF" offset="100%"></stop>
        </linearGradient>
        <linearGradient x1="0.751043115%" y1="52.0775623%" x2="95.8275382%" y2="52.0775623%" id="linearGradient-2">
            <stop stop-color="#FF66A9" offset="0%"></stop>
            <stop stop-color="#F53689" offset="100%"></stop>
        </linearGradient>
        <linearGradient x1="0.723226704%" y1="52.0775623%" x2="95.7997218%" y2="52.0775623%" id="linearGradient-3">
            <stop stop-color="#FF66A9" offset="0%"></stop>
            <stop stop-color="#F53689" offset="100%"></stop>
        </linearGradient>
        <linearGradient x1="2.42388413%" y1="52.0588235%" x2="97.3100798%" y2="52.0588235%" id="linearGradient-4">
            <stop stop-color="#83A6FF" offset="0%"></stop>
            <stop stop-color="#5A78FF" offset="100%"></stop>
        </linearGradient>
        <linearGradient x1="73.5990891%" y1="9.83816047%" x2="27.6057582%" y2="87.4782764%" id="linearGradient-5">
            <stop stop-color="#FF66A9" offset="0%"></stop>
            <stop stop-color="#F53689" offset="100%"></stop>
        </linearGradient>
        <linearGradient x1="49.6532399%" y1="115.953735%" x2="50.3817863%" y2="4.07240553%" id="linearGradient-6">
            <stop stop-color="#FF66A9" offset="0%"></stop>
            <stop stop-color="#F53689" offset="100%"></stop>
        </linearGradient>
        <linearGradient x1="48.2476547%" y1="141.933368%" x2="49.8448577%" y2="14.9864134%" id="linearGradient-7">
            <stop stop-color="#FF66A9" offset="0%"></stop>
            <stop stop-color="#F53689" offset="100%"></stop>
        </linearGradient>
        <linearGradient x1="99.930459%" y1="50.182704%" x2="0.0764951321%" y2="50.182704%" id="linearGradient-8">
            <stop stop-color="#FF66A9" offset="0%"></stop>
            <stop stop-color="#F53689" offset="100%"></stop>
        </linearGradient>
        <linearGradient x1="23.2746757%" y1="9.06672486%" x2="78.7192926%" y2="92.9778011%" id="linearGradient-9">
            <stop stop-color="#83A6FF" offset="0%"></stop>
            <stop stop-color="#5A78FF" offset="100%"></stop>
        </linearGradient>
        <linearGradient x1="43.4206908%" y1="48.5027581%" x2="72.4421632%" y2="87.037037%" id="linearGradient-10">
            <stop stop-color="#4F6AFF" offset="0%"></stop>
            <stop stop-color="#657EFF" stop-opacity="0" offset="100%"></stop>
        </linearGradient>
        <linearGradient x1="62.3576958%" y1="100.364394%" x2="40.3802368%" y2="14.9921916%" id="linearGradient-11">
            <stop stop-color="#C2D1FF" offset="1.13208%"></stop>
            <stop stop-color="#FFFFFF" offset="100%"></stop>
        </linearGradient>
    </defs>
    <g id="CostSaving" stroke="none" stroke-width="1" fill="none" fill-rule="evenodd">
        <g id="37" transform="translate(27.000000, 27.000000)">
            <path d="M131,80.9390126 C131,95.1856728 126.207687,108.395547 118.179674,119.007357 C113.77682,124.703582 108.467676,129.887512 102.380838,133.778509 C92.5390208,140.243175 80.7548041,144 68.0642976,144 C33.2297023,143.878025 5,115.640852 5,80.9390126 C5,46.103001 33.2297023,18 67.9344777,18 C80.6249842,18 92.4092009,21.7568248 102.251018,28.099516 C108.337856,31.9905131 113.647,37.0402711 118.049854,42.7364956 C126.207687,53.4824782 131,66.6923524 131,80.9390126 Z" id="Path" fill="#EAEEF9" fill-rule="nonzero"></path>
            <path d="M2.00055633,127 C3.05869263,127 4,126.180055 4,124.99446 C4,123.819945 3.17663421,123 2.00055633,123 C0.941307371,123 0,123.819945 0,124.99446 C0,126.180055 0.823365786,127 2.00055633,127 Z" id="Path" fill="url(#linearGradient-1)" fill-rule="nonzero"></path>
            <path d="M107.000556,24 C108.058693,24 109,23.1800554 109,22.0055402 C109,20.9418283 108.176634,20 107.000556,20 C105.941307,20 105,20.8310249 105,22.0055402 C105,23.1800554 105.941307,24 107.000556,24 Z" id="Path" fill="url(#linearGradient-2)" fill-rule="nonzero"></path>
            <path d="M20.0005563,42 C21.0586926,42 22,41.1800554 22,39.9944598 C22,38.9418283 21.1766342,38 20.0005563,38 C18.9413074,38 18,38.8199446 18,39.9944598 C18,41.1800554 18.9413074,42 20.0005563,42 Z" id="Path" fill="url(#linearGradient-3)" fill-rule="nonzero"></path>
            <path d="M145.567633,61.8689744 C147.372257,60.1510563 147.492869,57.3188127 145.808857,55.4616039 C144.123707,53.6160026 141.357602,53.499927 139.432367,55.2178452 C137.627743,56.947371 137.507131,59.7796145 139.191143,61.6252158 C140.876293,63.3547415 143.763009,63.4708171 145.567633,61.8689744 Z" id="Path" fill="#EAEEF9" fill-rule="nonzero"></path>
            <path d="M143.999409,40 C145.125037,40 146,39.1294118 146,38 C146,36.8705882 145.125037,36 143.999409,36 C142.874963,36 142,36.8705882 142,38 C142,39.1294118 142.874963,40 143.999409,40 Z" id="Path" fill="url(#linearGradient-4)" fill-rule="nonzero"></path>
            <path d="M19,83.1240942 C16.9786959,82.3822464 14.9573917,81.4990942 12.8106521,81.3813406 C9.6520657,81.1222826 7.50532603,83.6304348 7.6319562,86.7509058 C7.75739174,87.9990942 8.5159781,89 9.90532603,89 C10.6627178,89 11.4213041,88.6349638 11.9266302,88.1286232 C15.2106521,85.0081522 10.9159781,81.004529 8.64260826,79.0027174 C7.75739174,78.1313406 7,77.2481884 7,76" id="Path" stroke="#EB358A" stroke-width="1.9" stroke-linecap="round" stroke-linejoin="round"></path>
            <path d="M104,127 C104,127.260143 101.986059,136.542524 101.356032,139.806138 C101.229788,140.562919 100.600953,141.07138 99.9709262,141.319699 C96.3182009,142.324797 93.8004764,142.194726 90.2739947,141.07138 C89.8964551,140.941309 89.5189155,140.562919 89.392672,140.184528 L87,128.51356" id="Path" fill="#DB1A74" fill-rule="nonzero"></path>
            <path d="M66,127 C66,127.260348 63.970991,136.550052 63.3362507,139.816241 C63.2090627,140.573618 62.5743224,141.08248 61.940782,141.330995 C58.0075522,142.336886 55.3438029,142.206712 51.5365613,140.952306 L49,128.644928" id="Path" fill="#DB1A74" fill-rule="nonzero"></path>
            <path d="M118,55.4599093 C117.061184,51.5220755 118,51.6378941 116.122369,50.537617 C114.110259,49.1825389 108.073929,45.8585439 101.366473,50.0395969 C97.6099418,52.3791334 96,54.8344886 96,54.8344886 L97.7444207,60 C97.7444207,60 109.414913,58.5291033 109.280434,58.4017028" id="Path" fill="#E01B77" fill-rule="nonzero"></path>
            <path d="M118.914069,71 C120.473134,64.8329307 121.772969,50.1382505 112.159352,50.002303 C105.534864,49.8663556 100.9879,55.773889 98,61.1499915 C98,61.0264029 99.0393763,61.1499915 99.1696055,61.1499915 C99.5590644,61.1499915 100.078753,61.2859389 100.468212,61.2859389 C101.24713,61.4218863 102.157505,61.5454749 102.936423,61.8050109 C104.625717,62.2004943 106.313782,62.5959777 108.003075,63.2509971 C109.82137,63.9060164 111.639664,64.8329307 113.328958,65.747486 C114.497334,66.4025054 115.536711,67.1934722 116.576087,67.9720802 C117.356234,68.6394584 118.135152,70.0730858 118.914069,71 Z" id="Path" fill="#FF78B8" fill-rule="nonzero"></path>
            <path d="M17,88.9443954 C17,115.968226 40.7003335,138 69.9993842,138 C99.2996665,138 123,116.091792 123,88.9443954 C123,88.4130627 123,87.8940865 123,87.3627538 C122.088638,60.9938217 98.648166,40 69.9993842,40 C41.3506024,40 17.9113618,61.129744 17,87.4986761 C17,87.8940865 17,88.4130627 17,88.9443954 Z" id="Path" fill="url(#linearGradient-5)" fill-rule="nonzero"></path>
            <path d="M141.798962,146 L5.33557413,146 C4.53447426,146 4,145.4 4,144.5 C4,143.6 4.53447426,143 5.33557413,143 L141.664426,143 C142.466749,143 143,143.6 143,144.5 C143,145.4 142.466749,146 141.798962,146 Z" id="Path" fill="#B1B9CC" fill-rule="nonzero"></path>
            <path d="M84.4430837,46.4714346 L84.9651919,44.8686866 C85.0960275,44.6247902 84.8343563,44.2531385 84.5739193,44.1253832 C74.9155349,41.2915389 64.0833329,41.2915389 54.4261828,44.1253832 C54.1645116,44.2531385 53.9040746,44.4970349 54.0349102,44.8686866 L54.5570184,46.4714346 C54.6866198,46.8430863 55.0791266,47.0869828 55.4703992,46.9708416 C64.4758397,44.3808938 74.3946611,44.3808938 83.3988673,46.9708416 C83.9209755,47.0869828 84.3122481,46.8430863 84.4430837,46.4714346 Z" id="Path" fill="#DB1A74" fill-rule="nonzero"></path>
            <path d="M115.162922,79 L125,79 L125,109 L115.162922,109 C110.177477,109 106,102.276492 106,94.0060901 C106,85.7235079 110.177477,79 115.162922,79 Z" id="Path" fill="#DB267B" fill-rule="nonzero"></path>
            <path d="M104.5,77 C105.88125,77 107,75.4366667 107,73.5 C107,71.5633333 105.88125,70 104.5,70 C103.11875,70 102,71.5633333 102,73.5 C102,75.4366667 103.11875,77 104.5,77 Z" id="Path" fill="#DB1A74" fill-rule="nonzero"></path>
            <path d="M116.5,77 C117.88125,77 119,75.4366667 119,73.5 C119,71.5633333 117.88125,70 116.5,70 C115.11875,70 114,71.5633333 114,73.5 C114,75.4366667 115.11875,77 116.5,77 Z" id="Path" fill="#DB1A74" fill-rule="nonzero"></path>
            <path d="M82,50.295586 C78.124942,49.2507481 78.3743738,48.3411245 76.3753734,49.6440988 C74.375191,51.0822875 69.1253031,54.2168013 70.1253943,62.0469396 C70.6254399,66.4844277 72.1255768,69.0903764 72.1255768,69.0903764 L77.4995895,70 C77.4995895,70 81.1252157,59.1705622 80.8746018,59.1705622" id="Path" fill="#E01B77" fill-rule="nonzero"></path>
            <path d="M96,54.9564816 C91.1779783,50.6941514 78.8530633,43.3855087 74.2983686,52.0355318 C71.0828429,58.0153304 74.4326656,64.9478851 77.9155184,70 C77.7812214,69.8621011 78.4514393,69.0723164 78.4514393,69.0723164 C78.7187663,68.6711559 78.9873603,68.2699954 79.2546873,68.0067338 C79.7906082,67.3423118 80.3265292,66.6778897 80.8624501,66.0009314 C82.068589,64.6720872 83.273461,63.3432431 84.4795999,62.014399 C85.8187688,60.6855549 87.5608286,59.4820734 89.1685915,58.2911282 C90.2404334,57.6267061 91.4453053,56.9497478 92.6514442,56.4232247 C93.7232861,55.7588026 94.7951281,55.2197432 96,54.9564816 Z" id="Path" fill="#FF78B8" fill-rule="nonzero"></path>
            <path d="M90,130 C90,130.248448 87.9850088,139.547493 87.3550263,142.812807 C87.2287916,143.569981 86.6,144.066877 85.9700175,144.315325 C82.3187391,145.320947 79.8,145.202638 76.2737653,144.066877 C75.8962522,143.948568 75.5187391,143.569981 75.3925044,143.191394 L73,131.502518" id="Path" fill="url(#linearGradient-6)" fill-rule="nonzero"></path>
            <path d="M55,125.484809 C55,125.748985 52.5615962,136.831821 51.749222,140.580612 C51.6133992,141.373141 50.9355665,141.914074 50.2590152,142.178251 C45.7871133,143.373335 42.8066996,143.247537 38.7422662,141.914074 C38.3360791,141.775696 37.929892,141.373141 37.7940692,140.970587 L34,120" id="Path" fill="url(#linearGradient-7)" fill-rule="nonzero"></path>
            <path d="M124.5,109 C129.194506,109 133,102.276492 133,93.9939099 C133,85.7113276 129.194506,79 124.5,79 C119.805494,79 116,85.7113276 116,93.9939099 C116,102.276492 119.805494,109 124.5,109 Z" id="Path" fill="url(#linearGradient-8)" fill-rule="nonzero"></path>
            <path d="M129.5,100 C130.88004,100 132,97.7657005 132,95 C132,92.2342995 130.88004,90 129.5,90 C128.118716,90 127,92.2342995 127,95 C127,97.7657005 128.118716,100 129.5,100 Z" id="Path" fill="#DB1A74" fill-rule="nonzero"></path>
            <path d="M121.5,100 C122.88004,100 124,97.7657005 124,95 C124,92.2342995 122.88004,90 121.5,90 C120.118716,90 119,92.2342995 119,95 C119,97.7657005 120.118716,100 121.5,100 Z" id="Path" fill="#DB1A74" fill-rule="nonzero"></path>
            <path d="M90,20.9932702 C90,23.6097515 89.4798114,26.2139489 88.5697889,28.5601833 C86.3586801,34.4319113 81.5478582,38.9892567 75.5663046,40.9546887 C73.4855503,41.605738 71.2756712,41.9988244 69.0645624,41.9988244 C57.492519,42.1216639 48,32.6016028 48,20.9932702 C48.1303546,9.38493766 57.492519,0 69.0645624,0 C80.6378356,0 90,9.38493766 90,20.9932702 Z" id="Path" fill="url(#linearGradient-9)" fill-rule="nonzero"></path>
            <path d="M89,26.1245075 C86.659164,31.9507486 81.0701721,38.0457053 75.0902213,40 L63,27.4192277 L75.3496312,27.1627266 L67.1603934,17.037037 L69.6303197,12.249015 L69.8897295,10.819937 L71.8396066,9 L89,26.1245075 Z" id="Path" fill="url(#linearGradient-10)" fill-rule="nonzero"></path>
            <path d="M76.2576112,13.7725143 L74.029274,16.2961999 C74.029274,16.2961999 72.7903981,14.6970328 70.8103044,14.6970328 C69.324356,14.6970328 68.4578454,15.6340448 68.4578454,16.6959917 C68.4578454,20.1441957 77,18.1452369 77,24.7792816 C77,27.5653306 75.3911007,29.8266528 72.295082,30.4888079 L72.295082,33 L69.2002342,33 L69.2002342,30.4888079 C65.7330211,29.9515877 64,27.5653306 64,27.5653306 L66.2283372,25.1790734 C66.2283372,25.1790734 67.7142857,27.1655388 70.3149883,27.1655388 C72.1721311,27.1655388 73.1627635,26.1035919 73.1627635,24.7792816 C73.1627635,21.3310776 64.6194379,23.3175429 64.6194379,16.6959917 C64.6194379,14.1723061 66.352459,11.9109839 69.2002342,11.3862572 L69.2002342,9 L72.4192037,9 L72.4192037,11.5236856 C74.8957845,12.0484123 76.2576112,13.7725143 76.2576112,13.7725143 Z" id="Path" fill="url(#linearGradient-11)" fill-rule="nonzero"></path>
        </g>
    </g>
</svg>