<?xml version="1.0" encoding="UTF-8"?>
<svg width="200px" height="200px" viewBox="0 0 200 200" version="1.1" xmlns="http://www.w3.org/2000/svg" xmlns:xlink="http://www.w3.org/1999/xlink">
    <title>Customizable</title>
    <defs>
        <linearGradient x1="3.2059845%" y1="50.8761651%" x2="98.2901416%" y2="50.8761651%" id="linearGradient-1">
            <stop stop-color="#83A6FF" offset="0%"></stop>
            <stop stop-color="#5A78FF" offset="100%"></stop>
        </linearGradient>
        <linearGradient x1="2.29762223%" y1="50.3062583%" x2="97.3817793%" y2="50.3062583%" id="linearGradient-2">
            <stop stop-color="#FF66A9" offset="0%"></stop>
            <stop stop-color="#F53689" offset="100%"></stop>
        </linearGradient>
        <linearGradient x1="1.53278456%" y1="52.1377437%" x2="96.3951178%" y2="52.1377437%" id="linearGradient-3">
            <stop stop-color="#83A6FF" offset="0%"></stop>
            <stop stop-color="#5A78FF" offset="100%"></stop>
        </linearGradient>
        <path d="M112.946189,112 L58.0538113,112 C53.6035849,112 50,108.409674 50,103.974494 L50,37.0255059 C50,32.5903264 53.6035849,29 58.0538113,29 L112.946189,29 C117.396415,29 121,32.5903264 121,37.0255059 L121,103.974494 C121,108.409674 117.396415,112 112.946189,112 Z" id="path-4"></path>
        <filter x="-66.9%" y="-44.0%" width="233.8%" height="214.5%" filterUnits="objectBoundingBox" id="filter-5">
            <feOffset dx="0" dy="11" in="SourceAlpha" result="shadowOffsetOuter1"></feOffset>
            <feGaussianBlur stdDeviation="14" in="shadowOffsetOuter1" result="shadowBlurOuter1"></feGaussianBlur>
            <feColorMatrix values="0 0 0 0 0.396078431   0 0 0 0 0.478431373   0 0 0 0 0.576470588  0 0 0 0.356197757 0" type="matrix" in="shadowBlurOuter1"></feColorMatrix>
        </filter>
        <linearGradient x1="-0.100560264%" y1="48.7634874%" x2="99.7500359%" y2="48.7634874%" id="linearGradient-6">
            <stop stop-color="#CED7E2" offset="0%"></stop>
            <stop stop-color="#E6ECF5" offset="100%"></stop>
        </linearGradient>
        <linearGradient x1="0.783768409%" y1="44.6247145%" x2="99.7408508%" y2="44.6247145%" id="linearGradient-7">
            <stop stop-color="#CED7E2" offset="0%"></stop>
            <stop stop-color="#E6ECF5" offset="100%"></stop>
        </linearGradient>
        <linearGradient x1="0.454276121%" y1="50.0659618%" x2="98.3606557%" y2="50.0659618%" id="linearGradient-8">
            <stop stop-color="#83A6FF" offset="0%"></stop>
            <stop stop-color="#5A78FF" offset="100%"></stop>
        </linearGradient>
        <linearGradient x1="-0.122490792%" y1="49.521492%" x2="99.8837251%" y2="49.521492%" id="linearGradient-9">
            <stop stop-color="#FF66A9" offset="0%"></stop>
            <stop stop-color="#F53689" offset="100%"></stop>
        </linearGradient>
        <linearGradient x1="-0.123198998%" y1="50.042379%" x2="100.081437%" y2="50.042379%" id="linearGradient-10">
            <stop stop-color="#83A6FF" offset="0%"></stop>
            <stop stop-color="#5A78FF" offset="100%"></stop>
        </linearGradient>
        <linearGradient x1="-0.0360298858%" y1="50.4608357%" x2="100.060682%" y2="50.4608357%" id="linearGradient-11">
            <stop stop-color="#83A6FF" offset="0%"></stop>
            <stop stop-color="#5A78FF" offset="100%"></stop>
        </linearGradient>
        <linearGradient x1="50.0859471%" y1="88.8606727%" x2="50.0859471%" y2="4.89662855%" id="linearGradient-12">
            <stop stop-color="#BDCFFF" offset="0%"></stop>
            <stop stop-color="#91A5FF" stop-opacity="0.5" offset="100%"></stop>
        </linearGradient>
        <linearGradient x1="53.1752971%" y1="88.5834221%" x2="53.1752971%" y2="4.8531932%" id="linearGradient-13">
            <stop stop-color="#BDCFFF" offset="0%"></stop>
            <stop stop-color="#91A5FF" stop-opacity="0.5" offset="100%"></stop>
        </linearGradient>
        <linearGradient x1="49.5697897%" y1="89.2177554%" x2="49.5697897%" y2="4.77754706%" id="linearGradient-14">
            <stop stop-color="#BDCFFF" offset="0%"></stop>
            <stop stop-color="#91A5FF" stop-opacity="0.5" offset="100%"></stop>
        </linearGradient>
        <linearGradient x1="50.5391338%" y1="88.7867612%" x2="50.5391338%" y2="4.73133384%" id="linearGradient-15">
            <stop stop-color="#BDCFFF" offset="0%"></stop>
            <stop stop-color="#91A5FF" stop-opacity="0.5" offset="100%"></stop>
        </linearGradient>
        <linearGradient x1="51.6208652%" y1="89.0712989%" x2="51.6208652%" y2="4.94276107%" id="linearGradient-16">
            <stop stop-color="#BDCFFF" offset="0%"></stop>
            <stop stop-color="#91A5FF" stop-opacity="0.5" offset="100%"></stop>
        </linearGradient>
        <linearGradient x1="49.9908985%" y1="87.5137788%" x2="49.9908985%" y2="-8.15705212%" id="linearGradient-17">
            <stop stop-color="#3F5073" stop-opacity="0" offset="0.289017%"></stop>
            <stop stop-color="#283247" offset="100%"></stop>
        </linearGradient>
    </defs>
    <g id="Customizable" stroke="none" stroke-width="1" fill="none" fill-rule="evenodd">
        <g id="4" transform="translate(20.000000, 26.000000)">
            <path d="M143,74.4997336 C143,90.6828381 137.562692,105.689036 128.450228,117.752899 C123.453458,124.225555 117.427431,129.964225 110.520328,134.37746 C99.3506848,141.733296 85.9770162,146 71.5740905,146 C32.039134,146 0,113.927651 0,74.4997336 C0,34.9247524 32.039134,3 71.4272445,3 C85.8301702,3 99.2038387,7.26643788 110.373482,14.47521 C117.280585,18.8888445 123.306612,24.6264495 128.303382,31.099638 C137.562692,43.3105647 143,58.316629 143,74.4997336 Z" id="Path" fill="#EAEEF9" fill-rule="nonzero"></path>
            <path d="M3.64627304,26 C4.97007748,26 6,24.8235686 6,23.5 C6,22.1764314 4.97007748,21 3.49933209,21 C2.17552765,21 1,22.0294274 1,23.5 C1.14694096,24.8235686 2.32246861,26 3.64627304,26 Z" id="Path" fill="url(#linearGradient-1)" fill-rule="nonzero"></path>
            <path d="M3.49933209,137 C4.82313652,137 6,135.970706 6,134.500666 C6,133.177097 4.97007748,132 3.49933209,132 C2.17552765,132 1,133.029294 1,134.500666 C1.14694096,135.824234 2.17552765,137 3.49933209,137 Z" id="Path" fill="url(#linearGradient-2)" fill-rule="nonzero"></path>
            <path d="M151.248916,52.7467773 C153.455318,50.8305272 153.602233,47.6825084 151.544082,45.6293126 C149.484596,43.5762407 146.102871,43.4394188 143.75089,45.3555449 C141.544488,47.2717949 141.397573,50.4199376 143.457059,52.4730095 C145.51521,54.3892596 149.04385,54.5260815 151.248916,52.7467773 Z" id="Path" fill="#EAEEF9" fill-rule="nonzero"></path>
            <path d="M150.50071,29 C151.907181,29 153,27.9063694 153,26.5000707 C153,25.0937721 151.907181,24 150.50071,24 C149.094238,24 148,25.0937721 148,26.5000707 C148,27.9063694 149.094238,29 150.50071,29 Z" id="Path" fill="url(#linearGradient-3)" fill-rule="nonzero"></path>
            <path d="M95.5568061,135.971739 C95.5568061,141.429196 91.1355782,146 85.5333924,146 L32.0247526,146 C26.5698518,146 22,141.576081 22,135.971739 L22,10.0282612 C22,4.57173875 26.4225668,0 32.0247526,0 L85.9752474,0 C91.4301482,0 96,4.42431931 96,10.0282612 L96,136.119959 L95.5568061,136.119959 L95.5568061,135.971739 Z" id="Path" fill="#FFFFFF" fill-rule="nonzero"></path>
            <path d="M85.9752474,0 C91.4301482,0 96,4.4109256 96,9.99790278 L96,136.002097 C96,141.441702 91.5774332,146 85.9752474,146 L32.0247526,146 C26.5698518,146 22,141.588143 22,136.002097 L22,9.99790278 C22,4.55789877 26.4225668,0 32.0247526,0 L85.9752474,0 L85.9752474,0 Z" id="Path" fill="#1C3754" fill-rule="nonzero"></path>
            <path d="M90,9.72527144 L90,136.274862 C90,138.490356 88.685536,140.261948 86.6381589,140.852924 C86.2000042,141 85.7618496,141 85.1763156,141 L31.6776328,141 C31.3855297,141 31.0920989,141 30.9460473,141 C28.6078948,140.557436 27,138.637431 27,136.274862 L27,10.1682364 C27,7.6579234 28.6078948,5.73831948 30.9460473,5.44296495 C31.2381504,5.44296495 31.3855297,5.44296495 31.6776328,5.44296495 L39.5710552,5.44296495 C40.5934161,5.44296495 41.3250016,6.18128443 41.3250016,7.21495845 C41.3250016,9.28230649 43.0789479,11.0543 45.1249974,11.0543 L72.3131573,11.0543 C74.3605345,11.0543 76.1144808,9.28230649 76.1144808,7.21495845 C75.9684293,6.03367402 76.698687,5.29522083 77.7223756,5.29522083 L85.1763156,5.29522083 L85.1763156,5 C85.615798,5 86.2000042,5 86.6381589,5.14761041 C88.685536,5.73831948 90,7.51031299 90,9.72527144 Z" id="Path" fill="#FFFFFF" fill-rule="nonzero"></path>
            <path d="M62.9995675,7 L56.0004325,7 C55.2854671,7 55,6.28573276 55,6 C55,5.28573276 55.7149654,5 56.0004325,5 L62.9995675,5 C63.7145329,5 64,5.71426724 64,6 C64,6.71426724 63.5717993,7 62.9995675,7 Z" id="Path" fill="#2D5887" fill-rule="nonzero"></path>
            <path d="M52.1243612,7 L51.8745031,7 C51.249858,7 51,6.28573276 51,6 C51,5.28573276 51.6246451,5 51.8745031,5 L52.1243612,5 C52.750142,5 53,5.71426724 53,6 C53,6.71426724 52.750142,7 52.1243612,7 Z" id="Path" fill="#2D5887" fill-rule="nonzero"></path>
            <path d="M82.4433663,107 L35.5566337,107 C33.0586959,107 31,104.934901 31,102.42732 L31,43.57268 C31,41.0650985 33.0586959,39 35.5566337,39 L82.4433663,39 C84.9426392,39 87,41.0650985 87,43.57268 L87,102.42732 C87,104.934901 84.9426392,107 82.4433663,107 Z" id="Path" fill="#FFFFFF" fill-rule="nonzero"></path>
            <path d="M82.4433663,107 L35.5566337,107 C33.0586959,107 31,104.934901 31,102.42732 L31,43.57268 C31,41.0650985 33.0586959,39 35.5566337,39 L82.4433663,39 C84.9426392,39 87,41.0650985 87,43.57268 L87,102.42732 C87,104.934901 84.9426392,107 82.4433663,107 Z" id="Path" stroke="#E4E8F5" stroke-width="0.9843" fill="#F5F7FD" fill-rule="nonzero" stroke-linecap="round" stroke-linejoin="round" stroke-dasharray="1.98"></path>
            <path d="M87,4.14809208 L87,27.4074017 C87,29.9259061 84.9426392,32 82.4433663,32 L35.5566337,32 C33.0586959,32 31,29.9259061 31,27.4074017 L31,4.29618416 C31.293718,4.29618416 31.441912,4.29618416 31.73563,4.29618416 L39.6726904,4.29618416 C40.7007033,4.29618416 41.4363333,5.03704697 41.4363333,6.07395981 C41.4363333,8.14805375 43.1999762,9.9258294 45.257337,9.9258294 L72.595804,9.9258294 C74.6544999,9.9258294 76.4181428,8.14805375 76.4181428,6.07395981 C76.2712838,5.03704697 77.0055787,4.29618416 78.0349267,4.29618416 L85.5300751,4.29618416 L85.5300751,4 C86.1188461,4 86.5594231,4 87,4.14809208 Z" id="Path" fill="#EAEEF9" fill-rule="nonzero"></path>
            <path d="M87,118.598617 L87,140.850899 C86.5594231,141 86.1188461,141 85.5300751,141 L31.73563,141 C31.441912,141 31.146859,141 31,141 L31,118.598617 C31,116.076799 33.0586959,114 35.5566337,114 L82.4433663,114 C84.9426392,114 87,116.076799 87,118.598617 Z" id="Path" fill="#EAEEF9" fill-rule="nonzero"></path>
            <g id="Path" fill-rule="nonzero">
                <use fill="black" fill-opacity="1" filter="url(#filter-5)" xlink:href="#path-4"></use>
                <use fill="#FFFFFF" xlink:href="#path-4"></use>
            </g>
            <path d="M103.909151,91 L62.090849,91 C61.0454245,91 60,90.0000788 60,89 C60,87.7499409 60.8352823,87 62.090849,87 L103.909151,87 C104.954575,87 106,88.0000788 106,89 C105.791179,90.0000788 104.954575,91 103.909151,91 Z" id="Path" fill="url(#linearGradient-6)" fill-rule="nonzero"></path>
            <path d="M78.9001327,101 L62.0998673,101 C61.0499336,101 60,99.9999212 60,99 C60,97.7499409 60.8402124,97 62.0998673,97 L78.9001327,97 C79.9500664,97 81,97.9999212 81,99 C80.7902787,99.9999212 79.9500664,101 78.9001327,101 Z" id="Path" fill="url(#linearGradient-7)" fill-rule="nonzero"></path>
            <path d="M110.880107,77 L62.1198928,77 C60.8482251,77 60,75.9326636 60,74.8651927 L60,41.1348073 C60,39.8540036 61.0599464,39 62.1198928,39 L110.880107,39 C112.153115,39 113,40.0674709 113,41.1348073 L113,74.8651927 C113,76.1461309 111.940054,77 110.880107,77 Z" id="Path" fill="#E6ECF5" fill-rule="nonzero"></path>
            <polygon id="Path" fill="#CED7E2" fill-rule="nonzero" points="87 68 70 68 78.6029244 59"></polygon>
            <polygon id="Path" fill="#FFFFFF" fill-rule="nonzero" points="102 68 76 68 88.8902109 54"></polygon>
            <path d="M76.5006913,55 C78.4335374,55 80,53.4330045 80,51.5000689 C80,49.5669955 78.4335374,48 76.5006913,48 C74.5678452,48 73,49.5669955 73,51.5000689 C73,53.4330045 74.5678452,55 76.5006913,55 Z" id="Path" fill="url(#linearGradient-8)" fill-rule="nonzero"></path>
            <path d="M95.9596177,17.8332453 C96.4027992,21.624934 93.1501154,26 88.5665441,26 C84.5752244,26 81.1748134,22.3540896 81.1748134,18.2708443 L81.1748134,18.4166227 C81.0257433,23.2291557 77.0411385,25.6069003 72.9007487,24.586056 L72.4508523,24.586056 C69.4936228,24.0026786 66.3886662,22.3540896 66.3886662,18.562533 C66.3886662,22.6457783 63.1359824,26 58.9969355,26 C54.8565457,26 51.6038619,22.2083113 51.6038619,18.2708443 C51.6038619,22.3540896 48.203451,26 44.2121313,26 C40.0717415,26 36.8190577,22.6457783 36.8190577,18.562533 C36.8190577,22.5 33.5663739,26 29.4259841,26 C25.2869372,26 21.7387991,22.6457783 22.0342534,17.8332453 C22.0342534,13.4583113 20.9988202,15.5 30.3136901,5 L87.8279082,5 C96.6982535,15.3540896 95.9596177,13.1666227 95.9596177,17.8332453 Z" id="Path" fill="url(#linearGradient-9)" fill-rule="nonzero"></path>
            <path d="M52.0245477,19.1457783 C52.0245477,18.8540896 52.0245477,18.4166227 52.0245477,18.124934 C52.0245477,22.2083113 48.6031829,26 44.4386307,26 C40.2727273,26 37,22.6457783 37,18.562533 C37,18.7083113 37,18.8540896 37,19 C37.1486375,13.6040896 36.2568126,16.2291557 41.7604534,6.45831133 L42.8022671,5 L55,5 C51.2813603,16.5208443 51.8759102,13.1666227 52.0245477,19.1457783 Z" id="Path" fill="#FFFFFF" fill-rule="nonzero"></path>
            <path d="M80.9965025,17.5638573 C80.9965025,22.5228332 76.1973444,25.731489 72.1474161,24.856329 L71.9975702,24.856329 C68.6982341,24.2730211 65.9982819,21.0642332 65.9982819,17.2722694 C65.9982819,12.6050136 66.4491821,14.7928475 63,4 L75.2969063,4 L76.3471904,5.45846792 C81.2961945,14.6469215 80.9965025,12.7509396 80.9965025,17.5638573 Z" id="Path" fill="#FFFFFF" fill-rule="nonzero"></path>
            <path d="M157,114 L151.569333,141.762264 C151.128,144.246956 149.073333,146 146.577333,146 L103.421333,146 C100.926667,146 98.872,144.246956 98.4306667,141.762264 L93,114" id="Path" fill="#FFFFFF" fill-rule="nonzero"></path>
            <path d="M156,114 L155.56588,116.338495 L155.56588,116.629566 L150.786615,141.762264 C150.35118,144.246956 148.323972,146 145.862644,146 L103.137356,146 C100.676028,146 98.6488202,144.246956 98.2133848,141.762264 L93.4341199,116.629566 L93.4341199,116.338495 L93,114 L156,114 Z" id="Path" fill="url(#linearGradient-10)" fill-rule="nonzero"></path>
            <polygon id="Path" fill="#526DFF" fill-rule="nonzero" points="157 114 156.56 116 93.5866667 116 93 114"></polygon>
            <path d="M95.1145371,114 L93.5070353,114 C91.6075018,114 90,112.656738 90,111.0448 L90,107.9552 C90,106.343262 91.6075018,105 93.5070353,105 L156.492965,105 C158.392498,105 160,106.343262 160,107.9552 L160,111.0448 C160,112.656738 158.392498,114 156.492965,114 L154.885463,114" id="Path" fill="url(#linearGradient-11)" fill-rule="nonzero"></path>
            <path d="M106.628376,121.075455 C106.483965,120.328085 105.761911,119.87858 105.038545,120.028866 C104.316491,120.177798 103.883259,120.926522 104.027669,121.673892 L107.351743,138.870173 C107.640564,140.664132 110.386994,140.21598 109.953762,138.271735 L106.628376,121.075455 Z" id="Path" fill="url(#linearGradient-12)" fill-rule="nonzero"></path>
            <path d="M115.791112,121.216368 C115.64553,120.471079 115.063204,119.874308 114.188392,120.022826 C113.460485,120.172694 112.876836,120.769465 113.022417,121.663271 C113.460485,125.242548 114.917623,135.083871 115.354367,138.811665 C115.64553,140.600628 118.268643,140.303593 117.97748,138.364762 C117.97748,136.724316 116.082274,123.155199 115.791112,121.216368 Z" id="Path" fill="url(#linearGradient-13)" fill-rule="nonzero"></path>
            <path d="M123,120.353099 L123,137.646901 C123,139.451033 126,139.451033 126,137.646901 L126,120.353099 C126,118.548967 123,118.548967 123,120.353099 Z" id="Path" fill="url(#linearGradient-14)" fill-rule="nonzero"></path>
            <path d="M133.412971,121.19295 C132.217475,130.024768 132.665277,125.982951 131.021979,138.407947 C130.723444,140.203858 133.562238,140.652497 133.711505,138.856586 L135.056269,128.82659 C135.056269,128.677496 135.056269,128.677496 135.056269,128.528401 L135.951873,121.641589 C136.401032,119.695228 133.562238,119.397039 133.412971,121.19295 Z" id="Path" fill="url(#linearGradient-15)" fill-rule="nonzero"></path>
            <path d="M143.349444,120.086226 C142.914676,122.332729 140.168149,136.416781 140.02235,137.314839 C139.73338,139.113669 142.336736,139.711923 142.625706,137.914449 L145.951486,120.68448 C146.38494,118.887006 143.782898,118.287396 143.349444,120.086226 Z" id="Path" fill="url(#linearGradient-16)" fill-rule="nonzero"></path>
            <g id="Group" transform="translate(80.000000, 71.000000)">
                <path d="M24.3332512,3.92910345 C25.5834975,3.92910345 26.5836946,4.96675862 26.5836946,6.26372414 L26.5836946,21.3088276 C26.5836946,24.6809655 24.083202,27.2748966 20.8312315,27.2748966 L11.3266995,27.2748966 C10.3251724,27.2748966 9.32497537,27.0155862 8.82487685,26.2373793 C6.57310345,24.1622069 1.82083744,20.0117241 0.820640394,18.4554483 C0.570591133,17.9365517 0.320541872,17.6772414 0.320541872,17.1583448 L0.320541872,13.7862069 C0.320541872,11.7110345 1.82083744,10.1546207 3.82256158,10.1546207 L5.07280788,10.1546207 L5.07280788,16.6395862 L5.82295567,16.6395862 L5.82295567,3.15089655 C5.82295567,1.85393103 6.82315271,0.816413793 8.07472906,0.816413793 C9.32497537,0.816413793 10.3251724,1.85393103 10.3251724,3.15089655 L10.3251724,5.74496552 L11.0753202,5.74496552 L11.0753202,2.37268966 C11.0753202,1.07572414 12.0768473,0.0382068966 13.3270936,0.0382068966 C14.5773399,0.0382068966 15.578867,1.07572414 15.578867,2.37268966 L15.578867,5.74496552 L16.579064,5.74496552 L16.579064,3.92910345 C16.579064,2.63213793 17.5792611,1.59448276 18.8295074,1.59448276 C20.0810837,1.59448276 21.0812808,2.63213793 21.0812808,3.92910345 L21.0812808,5.74496552 L22.0814778,5.74496552 C22.3315271,4.70731034 23.0830049,3.92910345 24.3332512,3.92910345 Z" id="Path" fill="#FFFFFF" fill-rule="nonzero"></path>
                <path d="M24.3332512,3.92910345 C25.5834975,3.92910345 26.5836946,4.96675862 26.5836946,6.26372414 L26.5836946,21.3088276 C26.5836946,24.6809655 24.083202,27.2748966 20.8312315,27.2748966 L11.3266995,27.2748966 C10.3251724,27.2748966 9.32497537,27.0155862 8.82487685,26.2373793 C6.57310345,24.1622069 1.82083744,20.0117241 0.820640394,18.4554483 C0.570591133,17.9365517 0.320541872,17.6772414 0.320541872,17.1583448 L0.320541872,13.7862069 C0.320541872,11.7110345 1.82083744,10.1546207 3.82256158,10.1546207 L5.07280788,10.1546207 L5.07280788,16.6395862 L5.82295567,16.6395862 L5.82295567,3.15089655 C5.82295567,1.85393103 6.82315271,0.816413793 8.07472906,0.816413793 C9.32497537,0.816413793 10.3251724,1.85393103 10.3251724,3.15089655 L10.3251724,5.74496552 L11.0753202,5.74496552 L11.0753202,2.37268966 C11.0753202,1.07572414 12.0768473,0.0382068966 13.3270936,0.0382068966 C14.5773399,0.0382068966 15.578867,1.07572414 15.578867,2.37268966 L15.578867,5.74496552 L16.579064,5.74496552 L16.579064,3.92910345 C16.579064,2.63213793 17.5792611,1.59448276 18.8295074,1.59448276 C20.0810837,1.59448276 21.0812808,2.63213793 21.0812808,3.92910345 L21.0812808,5.74496552 L22.0814778,5.74496552 C22.3315271,4.70731034 23.0830049,3.92910345 24.3332512,3.92910345 Z" id="Path" stroke="#1C3754" stroke-width="1.408" stroke-linecap="round" stroke-linejoin="round"></path>
            </g>
            <path d="M81,122.754701 L81,140 L38,140 L38,122.754701 C38,121.731787 38.7420992,121 39.7804993,121 L79.368998,121 C80.1110972,121 81,121.731787 81,122.754701 Z" id="Path" fill="#FFFFFF" fill-rule="nonzero"></path>
            <polygon id="Path" fill="#CED7E2" fill-rule="nonzero" points="55 140 49 140 52.0768514 137 54.8448999 139.862963"></polygon>
            <polygon id="Path" fill="#EAEEF9" fill-rule="nonzero" points="67 141 55 141 55 140.847047 60.9259924 134"></polygon>
            <path d="M51.000757,135 C52.657078,135 54,133.656942 54,132 C54,130.343058 52.657078,129 51.000757,129 C49.342922,129 48,130.343058 48,132 C48,133.656942 49.342922,135 51.000757,135 Z" id="Path" fill="#CED7E2" fill-rule="nonzero"></path>
            <path d="M96,14 L23,14 C23.1461701,13.4203716 23.2923402,12.9856176 23.7308504,12.5507322 L31.045999,4 L87.954001,4 L95.2678207,12.5507322 C95.706331,12.9856176 95.8538299,13.4203716 96,14 Z" id="Path" fill="url(#linearGradient-17)" fill-rule="nonzero" opacity="0.2"></path>
            <line x1="11" y1="146.5" x2="158" y2="146.5" id="Path" stroke="#B1B9CC" stroke-width="2" stroke-linecap="round" stroke-linejoin="round"></line>
            <line x1="1" y1="146.5" x2="7" y2="146.5" id="Path" stroke="#B1B9CC" stroke-width="2" stroke-linecap="round" stroke-linejoin="round"></line>
        </g>
    </g>
</svg>