<?xml version="1.0" encoding="UTF-8"?>
<svg width="200px" height="200px" viewBox="0 0 200 200" version="1.1" xmlns="http://www.w3.org/2000/svg" xmlns:xlink="http://www.w3.org/1999/xlink">
    <title>FastToMarket</title>
    <defs>
        <linearGradient x1="0%" y1="51.1627907%" x2="94.8381452%" y2="51.1627907%" id="linearGradient-1">
            <stop stop-color="#83A6FF" offset="0%"></stop>
            <stop stop-color="#5A78FF" offset="100%"></stop>
        </linearGradient>
        <linearGradient x1="-0.228832952%" y1="50.5703422%" x2="96.6056445%" y2="50.5703422%" id="linearGradient-2">
            <stop stop-color="#FF66A9" offset="0%"></stop>
            <stop stop-color="#F53689" offset="100%"></stop>
        </linearGradient>
        <linearGradient x1="-6.90211109%" y1="22.3247199%" x2="82.5546024%" y2="108.474479%" id="linearGradient-3">
            <stop stop-color="#EF4896" offset="0%"></stop>
            <stop stop-color="#F14D9A" stop-opacity="0" offset="100%"></stop>
        </linearGradient>
        <linearGradient x1="0.0557073993%" y1="50.0518081%" x2="99.9454727%" y2="50.0518081%" id="linearGradient-4">
            <stop stop-color="#83A6FF" offset="0%"></stop>
            <stop stop-color="#5A78FF" offset="100%"></stop>
        </linearGradient>
        <linearGradient x1="29.4414819%" y1="28.4751255%" x2="61.7613123%" y2="58.329881%" id="linearGradient-5">
            <stop stop-color="#4F6AFF" offset="0%"></stop>
            <stop stop-color="#657EFF" stop-opacity="0" offset="100%"></stop>
        </linearGradient>
        <linearGradient x1="92.5372956%" y1="122.405498%" x2="31.5589541%" y2="29.4845361%" id="linearGradient-6">
            <stop stop-color="#C2D1FF" offset="1.13208%"></stop>
            <stop stop-color="#FFFFFF" offset="100%"></stop>
        </linearGradient>
        <linearGradient x1="76.8877801%" y1="80.0692042%" x2="-4.268983%" y2="-13.4948097%" id="linearGradient-7">
            <stop stop-color="#C2D1FF" offset="1.13208%"></stop>
            <stop stop-color="#FFFFFF" offset="100%"></stop>
        </linearGradient>
    </defs>
    <g id="FastToMarket" stroke="none" stroke-width="1" fill="none" fill-rule="evenodd">
        <g id="44" transform="translate(12.000000, 26.000000)">
            <path d="M6.21846235,53.8133884 C8.33055649,53.1697786 9.46796187,50.9010538 8.81709533,48.7771413 C8.16783985,46.669319 5.89302908,45.5269115 3.78093494,46.1866116 C1.6688408,46.8302214 0.533046472,49.1150364 1.18230195,51.2228587 C1.83155744,53.330681 4.10636821,54.4730885 6.21846235,53.8133884 Z" id="Path" fill="#EAEEF9" fill-rule="nonzero"></path>
            <path d="M15.2566234,44.9243066 C16.6205228,44.473971 17.2258659,43.107953 16.9239454,41.7419351 C16.4688115,40.3759172 15.1049121,39.7754697 13.7425147,40.0756934 C12.3786152,40.526029 11.7732722,41.892047 12.0766948,43.2580649 C12.3786152,44.6240828 13.894226,45.2245303 15.2566234,44.9243066 Z" id="Path" fill="#EAEEF9" fill-rule="nonzero"></path>
            <path d="M2.49927092,82 C3.82327209,82 5,80.9680233 5,79.5 C5,78.0319767 3.97054535,77 2.49927092,77 C1.17672791,77 0,78.0319767 0,79.5 C0,80.9680233 1.02945465,82 2.49927092,82 Z" id="Path" fill="url(#linearGradient-1)" fill-rule="nonzero"></path>
            <path d="M156,25 C157.07704,25 158,24.0722433 158,22.9923954 C158,21.9277567 157.07704,21 156,21 C154.92296,21 154,21.9277567 154,22.9923954 C154,24.0722433 154.92296,25 156,25 Z" id="Path" fill="url(#linearGradient-2)" fill-rule="nonzero"></path>
            <path d="M173.065353,58.3878822 C175.503166,56.1189313 175.666009,52.36953 173.389428,49.9396606 C171.114458,47.4936993 167.3739,47.3327808 164.936087,49.6178236 C162.496662,51.8867745 162.333819,55.6200839 164.610401,58.0660452 C166.724139,60.4959147 170.463085,60.672925 173.065353,58.3878822 Z" id="Path" fill="#EAEEF9" fill-rule="nonzero"></path>
            <polygon id="Path" fill="#B3BFCF" fill-rule="nonzero" points="96 17 84 17 84 26 96 26"></polygon>
            <polygon id="Path" fill="#9FADBF" fill-rule="nonzero" points="96 17 84 17 84 21 96 21"></polygon>
            <polygon id="Path" fill="#B3BFCF" fill-rule="nonzero" points="48.9866934 33 42 39.9924812 47.0118002 45 54 38.0225564"></polygon>
            <polygon id="Path" fill="#B3BFCF" fill-rule="nonzero" points="127 37.734375 134.26357 45 139 40.265625 131.737996 33"></polygon>
            <path d="M94.4992698,146 C127.342972,146 154,119.091266 154,85.9263984 C154,52.7762512 127.342972,26 94.4992698,26 C61.6570282,26 35,52.9234544 35,86.0736016 C35,119.238469 61.6570282,146 94.4992698,146 Z" id="Path" fill="#D3DAE6" fill-rule="nonzero"></path>
            <path d="M90.4992698,143 C123.342972,143 150,116.120941 150,83.007352 C150,49.8790589 123.342972,23 90.4992698,23 C57.6570282,23 31,50.0260997 31,83.1543928 C31,116.267982 57.6570282,143 90.4992698,143 Z" id="Path" stroke="#D3DAE6" fill="#DAE1ED" fill-rule="nonzero"></path>
            <path d="M37.6965246,86 C36.1989506,86 35,84.8198762 35,83.3483638 C35,83.0569752 35,82.7655866 35,82.6198923 C35,54.9525456 55.9749499,31.5540417 83.9905775,28.0136703 C85.4881515,27.867976 86.8371566,28.9024055 86.9857255,30.3739179 C87.13578,31.8454303 86.086884,33.1712484 84.58931,33.3169427 C59.270207,36.4056617 40.2429946,57.7498761 40.2429946,82.6198923 C40.2429946,82.9112809 40.2429946,83.0569752 40.2429946,83.3483638 C40.2429946,84.8198762 39.0455297,86 37.6965246,86 Z" id="Path" fill="#EDF0FC" fill-rule="nonzero"></path>
            <path d="M91.1828774,139 C85.2751286,139 79.365915,138.110157 73.9005517,136.199183 C72.4225158,135.746968 71.6842304,134.273622 72.1280806,132.946151 C72.5704659,131.472805 74.0485017,130.743425 75.3771226,131.181053 C80.4001007,132.946151 85.717514,133.690118 91.0349273,133.690118 C115.998938,133.690118 137.270056,115.120119 140.668513,90.3649823 C140.816463,88.891636 142.145084,87.8559172 143.621655,88.0163807 C145.099691,88.1622566 146.133876,89.4897271 145.985926,90.9630734 C144.213455,104.077315 137.713906,116.155838 127.817365,124.995916 C117.624924,134.127746 104.625826,139 91.1828774,139 Z" id="Path" fill="#C8D3DE" fill-rule="nonzero"></path>
            <path d="M137,83.5729526 C137,84.1565736 137,84.5942893 137,85.1925008 C136.114355,110.098525 115.743066,130 90.5,130 C65.2569337,130 44.739257,109.95262 44,85.0465955 C44,84.4483841 44,84.0106683 44,83.4270474 C44,58.3605271 63.9291988,37.8754314 88.7287108,37 C89.3186526,37 89.9100582,37 90.5,37 C116.038769,37 136.556446,57.3391905 137,82.5370254 C137,82.9747411 137,83.2811421 137,83.5729526 Z" id="Path" fill="#EDF0FC" fill-rule="nonzero"></path>
            <path d="M137,84.5076394 C136.114355,109.246551 115.743066,129 90.5,129 C65.2569337,129 44.739257,109.246551 44,84.5076394 C44.8856446,59.7687274 65.2569337,40 90.5,40 C115.595215,39.8558598 136.114355,59.7687274 137,84.5076394 Z" id="Path" fill="#FFFFFF" fill-rule="nonzero"></path>
            <path d="M102.661007,113 L76.3389934,113 C75.0237627,113 74,111.962662 74,110.633117 L74,97.3522727 C74,96.0227273 75.0237627,95 76.3389934,95 L102.661007,95 C103.976237,95 105,96.0227273 105,97.3522727 L105,110.633117 C104.853541,111.962662 103.829778,113 102.661007,113 Z" id="Path" fill="#F2F5FC" fill-rule="nonzero"></path>
            <path d="M130.715028,86 L123.286389,86 C122.000118,86 121,84.9164087 121,83.5077399 C121,82.0990712 122.000118,81 123.286389,81 L130.715028,81 C131.999882,81 133,82.0990712 133,83.5077399 C132.856924,84.9164087 131.856806,86 130.715028,86 Z" id="Path" fill="#DAE1ED" fill-rule="nonzero"></path>
            <path d="M54.714758,86 L47.285242,86 C46.0002361,86 45,84.9164087 45,83.5077399 C45,82.0990712 46.0002361,81 47.285242,81 L54.714758,81 C56.0011806,81 57,82.0990712 57,83.5077399 C56.8583235,84.9164087 55.7149941,86 54.714758,86 Z" id="Path" fill="#DAE1ED" fill-rule="nonzero"></path>
            <path d="M89.4992253,127 C88.0938953,127 87,125.996466 87,124.710247 L87,117.289753 C87,116.003534 88.0938953,115 89.4992253,115 C90.9061047,115 92,116.003534 92,117.289753 L92,124.710247 C91.8435079,125.996466 90.7496126,127 89.4992253,127 Z" id="Path" fill="#DAE1ED" fill-rule="nonzero"></path>
            <path d="M89.4992253,52 C88.0938953,52 87,50.9976134 87,49.6945107 L87,42.3054893 C87,41.0167064 88.0938953,40 89.4992253,40 C90.9061047,40 92,41.0167064 92,42.3054893 L92,49.8377088 C91.8435079,50.9976134 90.7496126,52 89.4992253,52 Z" id="Path" fill="#DAE1ED" fill-rule="nonzero"></path>
            <path d="M90.0007231,89 C93.7924801,89 97,85.9402062 97,82 C97,78.0742268 93.9370933,75 90.0007231,75 C86.208966,75 83,78.0742268 83,82 C83,85.9402062 86.0629067,89 90.0007231,89 Z" id="Path" fill="#F2F5FC" fill-rule="nonzero"></path>
            <path d="M119.347455,54.5329364 C118.477395,53.8223545 117.173023,53.8223545 116.448213,54.5329364 L91.9398388,79.9433455 C91.7945891,79.9433455 91.7945891,79.9433455 91.6493394,79.9433455 C89.7639692,79.9433455 88.4581598,81.378721 88.4581598,83.0983292 C88.4581598,83.2404456 88.4581598,83.3825619 88.4581598,83.53889 L84.5436079,87.5465719 C83.8187974,88.4134819 83.8187974,89.7067409 84.5436079,90.4173228 C84.9779189,90.8578836 85.4136681,91 85.9932289,91 C86.5727896,91 87.1537885,90.8578836 87.444288,90.4173228 L91.3588399,86.4096409 C91.5040896,86.4096409 91.6493394,86.4096409 91.6493394,86.4096409 C93.5347095,86.4096409 94.8390808,84.9742654 94.8390808,83.2404456 C94.8390808,83.0983292 94.8390808,82.9562128 94.8390808,82.8140964 L119.347455,57.5458037 C120.217515,56.394661 120.217515,55.1156136 119.347455,54.5329364 Z" id="Path" fill="#DAE1ED" fill-rule="nonzero"></path>
            <path d="M117.374253,53.5329364 C116.499967,52.8223545 115.189261,52.8223545 114.460931,53.5329364 L89.9780384,78.9433455 C89.8335284,78.9433455 89.8335284,78.9433455 89.6875733,78.9433455 C87.7930465,78.9433455 86.4808953,80.378721 86.4808953,82.0983292 C86.4808953,82.2404456 86.4808953,82.3825619 86.4808953,82.5246783 L82.5473318,86.5465719 C81.8175561,87.4134819 81.8175561,88.7067409 82.5473318,89.4173228 C82.9837521,89.8578836 83.4216176,90 84.0039931,90 C84.5863686,90 85.1701892,89.8578836 85.4606544,89.4173228 L89.395663,85.3954292 C89.5416181,85.3954292 89.6875733,85.3954292 89.6875733,85.3954292 C91.5821,85.3954292 92.8928061,83.9600538 92.8928061,82.2404456 C92.8928061,82.0983292 92.8928061,81.9562128 92.8928061,81.8140964 L117.520208,56.5458037 C118.249984,55.5367774 118.104029,54.25773 117.374253,53.5329364 Z" id="Path" fill="#EB358A" fill-rule="nonzero"></path>
            <path d="M117.901803,53.6579243 L83.7587456,89 C83.4600751,89 83.4600751,89 83.1628833,89 C82.8642128,88.5461457 83.0135481,87.9605272 83.3107399,87.5213133 L116.112738,53.3504746 C116.560743,52.9112608 117.305941,52.9112608 117.753947,53.20407 C118.051138,53.20407 118.051138,53.4968793 117.901803,53.6579243 Z" id="Path" fill="#FF4FA2" fill-rule="nonzero"></path>
            <path d="M101,5.47585115 L101,13.5241489 C101,16.5629454 98.5868022,19 95.8892018,19 L83.1107982,19 C80.2709966,19 78,16.4125099 78,13.5241489 L78,5.47585115 C78,2.43705463 80.4131978,0 83.1107982,0 L95.8892018,0 C98.7290034,0 101,2.5874901 101,5.47585115 Z" id="Path" fill="#1C3754" fill-rule="nonzero"></path>
            <path d="M101,5.47585115 L101,13.5241489 C101,16.5629454 98.5868022,19 95.8892018,19 L83.1107982,19 C80.2709966,19 78,16.4125099 78,13.5241489 L78,12.0047506 C78.8517997,15.810768 81.9760039,15.810768 81.9760039,15.810768 L95.1796033,15.810768 C97.025404,15.810768 98.4446009,14.1258907 98.4446009,12.3056215 L98.4446009,6.52889945 C98.4446009,2.5874901 97.7350024,1.06809184 95.7470005,0 C98.7290034,0 101,2.5874901 101,5.47585115 Z" id="Path" fill="#172D45" fill-rule="nonzero"></path>
            <path d="M80,14 C79.3988095,14 79,13.7029703 79,13.2786421 L79,4.70721358 C79,4.28288543 79.3988095,4 80,4 C80.5992063,4 81,4.28288543 81,4.70721358 L81,13.2786421 C80.5992063,13.7029703 80.2003968,14 80,14 Z" id="Path" fill="#2D5887" fill-rule="nonzero"></path>
            <path d="M83,14 C82.4007937,14 82,13.7029703 82,13.2786421 L82,4.70721358 C82,4.28288543 82.4007937,4 83,4 C83.6011905,4 84,4.28288543 84,4.70721358 L84,13.2786421 C84,13.7029703 83.6011905,14 83,14 Z" id="Path" fill="#2D5887" fill-rule="nonzero"></path>
            <path d="M87.0009911,14 C86.4003964,14 86,13.7029703 86,13.2786421 L86,4.70721358 C86,4.28288543 86.4003964,4 87.0009911,4 C87.5996036,4 88,4.28288543 88,4.70721358 L88,13.2786421 C87.7998018,13.7029703 87.3994054,14 87.0009911,14 Z" id="Path" fill="#2D5887" fill-rule="nonzero"></path>
            <path d="M91,14 C90.3988095,14 90,13.7029703 90,13.2786421 L90,4.70721358 C90,4.28288543 90.3988095,4 91,4 C91.5992063,4 92,4.28288543 92,4.70721358 L92,13.2786421 C92,13.7029703 91.5992063,14 91,14 Z" id="Path" fill="#2D5887" fill-rule="nonzero"></path>
            <path d="M93,14 C92.4007937,14 92,13.7029703 92,13.2786421 L92,4.70721358 C92,4.28288543 92.4007937,4 93,4 C93.6011905,4 94,4.28288543 94,4.70721358 L94,13.2786421 C93.8015873,13.7029703 93.4007937,14 93,14 Z" id="Path" fill="#2D5887" fill-rule="nonzero"></path>
            <path d="M97.0009911,14 C96.4003964,14 96,13.7029703 96,13.2786421 L96,4.70721358 C96,4.28288543 96.4003964,4 97.0009911,4 C97.5996036,4 98,4.28288543 98,4.70721358 L98,13.2786421 C98,13.7029703 97.3994054,14 97.0009911,14 Z" id="Path" fill="#2D5887" fill-rule="nonzero"></path>
            <path d="M100,14 C99.4007937,14 99,13.7029703 99,13.2786421 L99,4.70721358 C99,4.28288543 99.4007937,4 100,4 C100.60119,4 101,4.28288543 101,4.70721358 L101,13.2786421 C101,13.7029703 100.60119,14 100,14 Z" id="Path" fill="#2D5887" fill-rule="nonzero" opacity="0.7"></path>
            <path d="M50.9269787,32.852614 L43.9140179,39.82703 C42.33855,41.39099 39.9058006,41.39099 38.1883988,39.82703 L34.1816009,35.8396366 C32.606133,34.2756767 32.606133,31.8522432 34.1816009,30.147386 L41.1945617,23.17297 C42.7686102,21.60901 45.2013596,21.60901 46.9187614,23.17297 L50.9269787,27.1603634 C52.3576738,28.8652206 52.3576738,31.4295514 50.9269787,32.852614 Z" id="Path" fill="#1C3754" fill-rule="nonzero"></path>
            <path d="M131.173894,32.852614 L138.147394,39.82703 C139.712585,41.39099 142.133057,41.39099 143.840796,39.82703 L147.825048,35.8396366 C149.391651,34.2756767 149.391651,31.8522432 147.825048,30.147386 L140.851548,23.17297 C139.286356,21.60901 136.867296,21.60901 135.159557,23.17297 L131.173894,27.1603634 C129.608702,28.8652206 129.608702,31.4295514 131.173894,32.852614 Z" id="Path" fill="#1C3754" fill-rule="nonzero"></path>
            <path d="M91.001,82.81 C91.403,82.81 91.807,82.39 91.807,81.99 C91.807,81.59 91.403,81.19 91.001,81.19 C90.597,81.19 90.193,81.59 90.193,81.99 C90.193,82.39 90.597,82.81 91.001,82.81 Z" id="Path" fill="#1C3754" fill-rule="nonzero"></path>
            <path d="M137,83 L89,83 L89,37 C89.5884285,37 90.1783172,37 90.7667458,37 C115.945063,37 136.557584,57.4803577 137,83 Z" id="Path" fill="url(#linearGradient-3)" fill-rule="nonzero" opacity="0.4"></path>
            <path d="M165.259042,118.822462 C165.110394,119.411466 164.961747,120.015195 164.8131,120.604199 C164.36863,122.385935 163.774041,124.182397 162.88363,125.816882 C162.736454,126.111384 162.587807,126.553137 162.43916,126.847639 C162.43916,127.009615 162.290513,127.156866 162.290513,127.156866 C159.619278,132.354825 155.61169,136.669277 150.862339,139.790998 C150.269221,140.247476 149.676104,140.541977 149.081516,140.836479 C148.785693,140.98373 148.339751,141.278232 147.89381,141.425483 C147.152045,141.73471 146.410281,142.176463 145.668517,142.470965 C143.590399,143.369196 141.365106,143.9582 139.138342,144.399952 C134.982107,145.150932 130.530049,145.298183 126.226639,144.252701 C108.416937,140.541977 96.9887632,123.136915 100.699056,105.2901 C104.40935,87.4432845 121.774582,75.9871605 139.584283,79.6978845 C145.817164,81.0378681 151.605575,84.1595883 156.206279,88.6360172 C164.219983,96.661194 167.632982,107.970067 165.259042,118.822462 Z" id="Path" fill="url(#linearGradient-4)" fill-rule="nonzero"></path>
            <path d="M165,121.030355 C164.555899,122.825112 163.965229,124.634702 163.078492,126.281131 C162.930458,126.577785 162.782424,127.022766 162.635856,127.31942 C162.339789,127.630907 162.191755,127.779234 162.043721,127.927561 C159.38351,133.015178 155.540493,137.361159 150.958774,140.357365 C150.368104,140.817178 149.775969,141.113832 149.1853,141.410486 C148.889232,141.558813 148.446596,141.855467 148.002495,142.003794 C147.263791,142.315281 146.525088,142.760262 145.786385,143.056916 C143.716843,143.961711 141.499267,144.555019 139.283157,145 L118,123.284926 L123.911092,115.334598 L118,108.303898 L125.980634,103.957917 L130.267752,104.254571 L136.917548,111.300103 C136.917548,111.300103 142.534038,118.493963 142.386004,118.03415 C142.091402,117.589169 138.544454,111.745085 138.544454,111.745085 L146.22902,102 L165,121.030355 Z" id="Path" fill="url(#linearGradient-5)" fill-rule="nonzero"></path>
            <line x1="19" y1="146" x2="176" y2="146" id="Path" stroke="#B1B9CC" stroke-width="2" stroke-linecap="round" stroke-linejoin="round"></line>
            <line x1="7" y1="146" x2="13" y2="146" id="Path" stroke="#B1B9CC" stroke-width="2" stroke-linecap="round" stroke-linejoin="round"></line>
            <path d="M118,123.848797 L118,119.267354 L125.347095,110.709278 C126.054759,109.786942 126.336423,109.333333 126.336423,108.426117 C126.336423,107.201375 125.771693,106.430241 124.499299,106.430241 C123.651504,106.430241 122.662175,106.898969 122.662175,108.57732 L118,108.57732 C118,104.298282 120.966584,102 124.499299,102 C128.173547,102 131,104.449485 131,108.57732 C131,110.860481 130.152204,112.085223 128.456613,113.914777 L123.651504,119.418557 L131,119.418557 L131,124 L118,124 L118,123.848797 Z" id="Path" fill="url(#linearGradient-6)" fill-rule="nonzero"></path>
            <polygon id="Path" fill="url(#linearGradient-7)" fill-rule="nonzero" points="147.365243 120.209689 147.365243 123 142.761414 123 142.761414 120.209689 134 120.209689 134 115.6609 140.979381 102 146.325479 102 139.346097 115.6609 142.761414 115.6609 142.761414 112.870588 147.365243 112.870588 147.365243 115.6609 149 115.6609 149 120.209689"></polygon>
        </g>
    </g>
</svg>