<?xml version="1.0" encoding="UTF-8"?>
<svg width="170px" height="40px" viewBox="0 0 170 40" version="1.1" xmlns="http://www.w3.org/2000/svg" xmlns:xlink="http://www.w3.org/1999/xlink">
    <title>Logo</title>
    <defs>
        <linearGradient x1="0.798108188%" y1="51.1764706%" x2="94.2063257%" y2="51.1764706%" id="linearGradient-1">
            <stop stop-color="#FF66A9" offset="0%"></stop>
            <stop stop-color="#F53689" offset="100%"></stop>
        </linearGradient>
        <linearGradient x1="42.6178262%" y1="99.4081176%" x2="57.1228226%" y2="2.95282505%" id="linearGradient-2">
            <stop stop-color="#FF66A9" offset="0%"></stop>
            <stop stop-color="#F53689" offset="100%"></stop>
        </linearGradient>
        <linearGradient x1="65.0371851%" y1="8.82554401%" x2="31.22297%" y2="89.210443%" id="linearGradient-3">
            <stop stop-color="#FF66A9" offset="0%"></stop>
            <stop stop-color="#F53689" offset="100%"></stop>
        </linearGradient>
        <linearGradient x1="6.99220005%" y1="92.2669674%" x2="90.5816365%" y2="16.708797%" id="linearGradient-4">
            <stop stop-color="#FFC9E3" offset="1.13208%"></stop>
            <stop stop-color="#FFFFFF" offset="100%"></stop>
        </linearGradient>
        <linearGradient x1="13.4388183%" y1="48.1989873%" x2="77.5077043%" y2="53.3158831%" id="linearGradient-5">
            <stop stop-color="#E81778" offset="0%"></stop>
            <stop stop-color="#E01F79" stop-opacity="0" offset="100%"></stop>
        </linearGradient>
        <linearGradient x1="32.0431708%" y1="34.7435057%" x2="48.3844775%" y2="57.1336476%" id="linearGradient-6">
            <stop stop-color="#E81778" offset="0%"></stop>
            <stop stop-color="#E01F79" stop-opacity="0" offset="100%"></stop>
        </linearGradient>
        <linearGradient x1="78.4187742%" y1="76.5207669%" x2="45.7874019%" y2="34.6862894%" id="linearGradient-7">
            <stop stop-color="#FFC9E3" offset="1.13208%"></stop>
            <stop stop-color="#FFFFFF" offset="100%"></stop>
        </linearGradient>
        <linearGradient x1="59.9097747%" y1="75.9794419%" x2="24.2724253%" y2="37.95133%" id="linearGradient-8">
            <stop stop-color="#FFC9E3" offset="1.13208%"></stop>
            <stop stop-color="#FFFFFF" offset="100%"></stop>
        </linearGradient>
        <linearGradient x1="84.0722011%" y1="71.615649%" x2="15.9900486%" y2="2.27014123%" id="linearGradient-9">
            <stop stop-color="#FF66A9" offset="0%"></stop>
            <stop stop-color="#F53689" offset="100%"></stop>
        </linearGradient>
        <linearGradient x1="71.7834405%" y1="86.1240332%" x2="26.2877365%" y2="-0.526664412%" id="linearGradient-10">
            <stop stop-color="#FF66A9" offset="0%"></stop>
            <stop stop-color="#F53689" offset="100%"></stop>
        </linearGradient>
        <linearGradient x1="100.907652%" y1="41.3683468%" x2="0.699309388%" y2="59.9260719%" id="linearGradient-11">
            <stop stop-color="#FF66A9" offset="0%"></stop>
            <stop stop-color="#F53689" offset="100%"></stop>
        </linearGradient>
        <linearGradient x1="99.4432104%" y1="41.6372993%" x2="0.483086564%" y2="60.1950244%" id="linearGradient-12">
            <stop stop-color="#FF66A9" offset="0%"></stop>
            <stop stop-color="#F53689" offset="100%"></stop>
        </linearGradient>
        <linearGradient x1="79.8927091%" y1="76.3251104%" x2="18.6715314%" y2="-0.0866591145%" id="linearGradient-13">
            <stop stop-color="#FF66A9" offset="0%"></stop>
            <stop stop-color="#F53689" offset="100%"></stop>
        </linearGradient>
    </defs>
    <g id="Logo" stroke="none" stroke-width="1" fill="none" fill-rule="evenodd">
        <g id="50" transform="translate(2.000000, 2.000000)" fill-rule="nonzero">
            <path d="M5.5001478,32 C5.7632279,32 6,31.7882353 6,31.5 C6,31.2117647 5.78953591,31 5.5001478,31 C5.2367721,31 5,31.2117647 5,31.5 C5,31.8147059 5.2367721,32 5.5001478,32 Z" id="Path" fill="url(#linearGradient-1)"></path>
            <path d="M23.7086997,1.00396052 L34.0294331,11.6481813 C35.3235223,12.980575 35.3235223,15.1153907 34.0294331,16.4515166 L17.9501666,33.0000702 C17.4323129,33.5337741 16.7531068,33.8696717 16.0735374,33.970441 C15.0705366,34.1010678 14.0351926,33.8024922 13.2913003,33.0000702 L2.97056686,22.3558494 C1.67647771,21.0234557 1.67647771,18.88864 2.97056686,17.5525142 L19.0174903,1.00396052 C19.6323734,0.369487327 20.4736586,0.033589757 21.3145803,0 C22.1882086,0 23.0294937,0.33589757 23.7086997,1.00396052 Z" id="Path" fill="url(#linearGradient-2)"></path>
            <path d="M23.7086997,1.00396052 L34.0294331,11.6481813 C35.3235223,12.980575 35.3235223,15.1153907 34.0294331,16.4515166 L17.9501666,33.0000702 C17.4323129,33.5337741 16.7531068,33.8696717 16.0735374,33.970441 C15.0705366,34.1010678 14.0351926,33.8024922 13.2913003,33.0000702 L2.97056686,22.3558494 C1.67647771,21.0234557 1.67647771,18.88864 2.97056686,17.5525142 L19.0174903,1.00396052 C19.6323734,0.369487327 20.4736586,0.033589757 21.3145803,0 C22.1882086,0 23.0294937,0.33589757 23.7086997,1.00396052 Z" id="Path" fill="url(#linearGradient-3)"></path>
            <path d="M26.8385674,4.64489348 L28.5292863,6.32017544 C28.5292863,6.35260025 28.4967865,6.35260025 28.4642868,6.38502506 L23.4249949,11.4108709 L29.3417808,17.2401316 L30.9350004,18.8181391 C30.9675002,18.8505639 30.9675002,18.8505639 31,18.8829887 L29.3092811,20.5582707 C29.2767813,20.5582707 29.2767813,20.5258459 29.2442815,20.5258459 L23.3274955,14.72901 L21.7021413,13.1473997 L7.72321872,27 L6,25.2922932 L19.9792878,11.4432957 L14.1925009,5.70770677 L15.9153545,4 L21.7346411,9.70316416 L26.8060676,4.6773183 C26.7735678,4.6773183 26.8060676,4.6773183 26.8385674,4.64489348 Z" id="Path" fill="url(#linearGradient-4)"></path>
            <path d="M34.9493641,16.5876461 L31.5314427,20 L19.6041705,20 L20.2321279,17.6316082 L18.4183771,17.6316082 L18,14.8113523 L22.2895402,12.5831942 L26.0909738,7.53088481 L25.8469205,6 L29.4391656,6 L34.9842288,11.5392321 C36.344346,12.9649416 36.344346,15.1930996 34.9493641,16.5876461 Z" id="Path" fill="url(#linearGradient-5)"></path>
            <polygon id="Path" fill="#FFFFFF" points="31 15.7047226 29.1225828 16.0641907 29.3204977 17.736818 29.3204977 17.9018799 29.0567345 17.736818 23.063057 13.999083 22.8651421 17.736818 22.7663696 20 21.5148815 18.8519028 20 19.9009629 20.0658483 17.736818 20.1316967 15.8367721 25.5989575 12"></polygon>
            <path d="M19.2546751,19.1293258 L12.1287266,26.256616 C11.9570911,26.4252185 11.9570911,26.7011136 12.1287266,26.8735481 C12.2999772,27.0421506 12.5739781,27.0421506 12.7452287,26.8735481 L19.8715621,19.7462579 C20.0428126,19.5738235 20.0428126,19.3017603 19.8715621,19.1293258 C19.6999266,18.9568914 19.4259257,18.9568914 19.2546751,19.1293258 Z" id="Path" fill="#DB1A74"></path>
            <path d="M19.1794772,23.1424552 L17.1414694,25.1811467 C16.9528435,25.366866 16.9528435,25.6707703 17.1414694,25.8607105 C17.3305193,26.0464298 17.6323207,26.0464298 17.8209467,25.8607105 L19.8585306,23.822019 C20.0471565,23.6320788 20.0471565,23.3323954 19.8585306,23.1424552 C19.6699046,22.9525149 19.3681031,22.9525149 19.1794772,23.1424552 Z" id="Path" fill="#DB1A74"></path>
            <polygon id="Path" fill="url(#linearGradient-6)" opacity="0.6" points="30 15.8746803 28.1116487 16.2506394 28.3103833 18 28.0450316 18 22.0152587 14.0907928 21.8161518 18 19 18 19.0662449 16.0127877 24.566431 12"></polygon>
            <path d="M16.2625182,27.1279217 L14.1270864,29.2618446 C13.9576379,29.4324068 13.9576379,29.7015161 14.1270864,29.8720783 C14.2965349,30.0426406 14.5676525,30.0426406 14.737101,29.8720783 L16.8729136,27.7381554 C17.0423621,27.5675932 17.0423621,27.2984839 16.8729136,27.1279217 C16.6695754,26.9573594 16.4323475,26.9573594 16.2625182,27.1279217 Z" id="Path" fill="#DB1A74"></path>
            <path d="M19.5164088,11 L21.4445945,11 L23,13.3501133 L22.0979207,14.0801659 L19.9828209,17.4925468 C19.5164088,18.2267009 18.5521413,18.1528754 18.1790117,17.3448957 L16.1261001,12.8702472 C15.7529705,12.0294563 16.2504766,11 17.0592735,11 L17.18365,11" id="Path" fill="url(#linearGradient-7)"></path>
            <path d="M22.8833026,13 L23.9703562,12.5675234 L27.8767286,12.3699264 C28.7256912,12.3363722 29.2694088,11.4341366 28.8619068,10.6698461 L26.6198825,6.60232941 C26.2119989,5.83431068 25.0913684,5.80075646 24.6155678,6.50166676 L22,10.4014124 L22.8833026,13 Z" id="Path" fill="url(#linearGradient-8)"></path>
            <g id="Group" opacity="0.3" transform="translate(18.000000, 14.000000)" fill="#EC3A8D">
                <path d="M3.96569944,0.180180843 L3.66253803,0.380321839 L3.69622263,0.346335632 L2.0789833,2.51012414 C1.80950649,2.88019617 1.53965121,3.21628199 1.2701744,3.59013027 C0.967012987,3.92621609 0.46174397,4.06216092 0.0234656772,3.89222989 L0.0234656772,3.85824368 C0.46174397,3.99418851 0.933328386,3.85824368 1.20280519,3.52215785 C1.472282,3.18229579 1.70845269,2.81222375 1.9779295,2.44215172 L3.52779963,0.248153257 L3.83096104,0.0442360153 L3.96569944,0.180180843 Z" id="Path"></path>
            </g>
            <g id="Group" opacity="0.3" transform="translate(23.000000, 12.000000)" fill="#EC3A8D">
                <path d="M0.0479619565,0.84964503 L0.665081522,0.667545639 L3.4955163,0.618407708 L4.9107337,0.592393509 C5.38233696,0.56637931 5.81766304,0.332251521 5.96277174,0.0229716024 C5.81766304,0.332251521 5.38233696,0.592393509 4.9107337,0.644421907 L3.4955163,0.719574037 L0.665081522,0.84964503 L0.701358696,0.84964503 L0.120516304,0.979716024 L0.0479619565,0.84964503 Z" id="Path"></path>
            </g>
            <path d="M20.1813322,11.9204617 C19.7574565,10.8331028 20.1106862,9.66745395 20.8877917,9.19771487 C21.7712629,8.65403539 23.0079639,9.27600472 23.6441744,10.5199434 C24.2799879,11.7682315 24.0327271,13.2426902 23.1492558,13.7863697 C22.5134423,14.1778189 21.700617,14.0212393 21.1001264,13.3992699 C20.6405308,12.9730252 20.463916,12.6207209 20.1813322,11.9204617 Z" id="Path" fill="#FFFFFF"></path>
            <path d="M7.83335866,3.65849267 C7.45270516,2.87388459 6.48338017,2.75388571 5.99891208,3.49695571 C5.51405518,2.75388571 4.54473019,2.87388459 4.16407669,3.65849267 C3.81802806,4.31848652 4.0602621,4.9369423 4.51012532,5.56001342 C4.96037736,6.17846919 5.54866004,6.71384882 5.86010381,6.95846193 C5.89470867,7 5.96430722,7 6.03351695,7 C6.10272667,7 6.1719364,7 6.20654126,6.95846193 C6.48338017,6.75538689 7.10626771,6.22000727 7.55651975,5.56001342 C7.93717325,4.97848037 8.17940729,4.36002459 7.83335866,3.65849267 Z" id="Path" fill="url(#linearGradient-9)"></path>
            <path d="M35.9836319,26.6947035 C35.8418064,25.8454404 34.9549987,25.3841655 34.2458713,25.8454404 C33.9618219,25.0004883 33.0399563,24.7288966 32.4013432,25.3065679 C31.8694976,25.7721537 31.9404104,26.4274227 32.188605,27.1171795 C32.4367996,27.8112473 32.8626744,28.5441139 33.0754126,28.8545044 C33.110869,28.8933032 33.1463254,28.9321021 33.2172381,28.9709009 C33.2881509,29.0096997 33.3236072,29.0096997 33.39452,28.9709009 C33.7490837,28.8933032 34.4940659,28.6605103 35.0968242,28.2768331 C35.6645245,27.8888449 36.090001,27.4275701 35.9836319,26.6947035 Z" id="Path" fill="url(#linearGradient-10)"></path>
            <path d="M24.0418218,33.0065583 C23.3683478,32.9339411 22.8071194,33.4745357 22.9567803,34.124056 C22.2828859,34.124056 21.8339032,34.7735764 22.0583945,35.3867882 C22.2454706,35.8910742 22.732289,36 23.2935173,36 C23.8921609,36 24.4912249,35.818457 24.7905467,35.7095313 C24.8279619,35.7095313 24.8653772,35.677257 24.9027924,35.6409484 C24.9402076,35.6046398 24.9402076,35.5683312 24.9776228,35.495714 C25.0150381,35.2052453 25.0150381,34.5920335 24.9027924,34.0151303 C24.8279619,33.5108443 24.6034706,33.0791754 24.0418218,33.0065583 Z" id="Path" fill="url(#linearGradient-11)" opacity="0.5"></path>
            <path d="M2.01667043,13.0065583 C1.35149231,12.9339411 0.796761996,13.4745357 0.944994573,14.124056 C0.279401236,14.124056 -0.164050843,14.7735764 0.0576751964,15.3867882 C0.279401236,15.8910742 0.759807656,16 1.31453797,16 C1.90580741,16 2.49749207,15.818457 2.79312679,15.7095313 C2.83008113,15.7095313 2.86703547,15.6732227 2.90398981,15.6369141 C2.94094415,15.6006055 2.97789849,15.5279883 2.97789849,15.4916797 C3.01485283,15.2052453 3.01485283,14.5920335 2.90398981,14.0151303 C2.79312679,13.5108443 2.57140075,13.0751412 2.01667043,13.0065583 Z" id="Path" fill="url(#linearGradient-12)" opacity="0.5"></path>
            <path d="M31.9263289,0.758682605 C31.6936263,0.150507297 30.9966372,-0.0408765411 30.5651677,0.452468464 C30.2328952,-0.117430076 29.5359061,-0.155706844 29.1704436,0.375914929 C28.871734,0.835236141 29.0044938,1.29030438 29.2703864,1.78364938 C29.5359061,2.27699439 29.9673755,2.7363156 30.1665153,2.92344646 C30.1997053,2.96172323 30.2328952,2.96172323 30.2992751,3 C30.3324651,3 30.398845,3 30.432035,2.96172323 C30.6647376,2.84689293 31.162587,2.50665499 31.5608665,2.08986352 C31.893139,1.70709585 32.1254687,1.29030438 31.9263289,0.758682605 Z" id="Path" fill="url(#linearGradient-13)"></path>
        </g>
        <path d="M55.672,29 L55.672,25.832 L48.712,25.832 L48.712,11.96 L45.136,11.96 L45.136,29 L55.672,29 Z M65.824,29.48 C66.848,29.48 67.808,29.332 68.704,29.036 C69.6,28.74 70.412,28.324 71.14,27.788 C71.868,27.252 72.496,26.612 73.024,25.868 C73.552,25.124 73.96,24.292 74.248,23.372 C74.536,22.452 74.68,21.48 74.68,20.456 C74.68,19.432 74.536,18.464 74.248,17.552 C73.96,16.64 73.556,15.812 73.036,15.068 C72.516,14.324 71.892,13.684 71.164,13.148 C70.436,12.612 69.624,12.2 68.728,11.912 C67.832,11.624 66.88,11.48 65.872,11.48 C64.848,11.48 63.888,11.628 62.992,11.924 C62.096,12.22 61.284,12.636 60.556,13.172 C59.828,13.708 59.2,14.348 58.672,15.092 C58.144,15.836 57.736,16.668 57.448,17.588 C57.16,18.508 57.016,19.48 57.016,20.504 C57.016,21.528 57.16,22.496 57.448,23.408 C57.736,24.32 58.14,25.148 58.66,25.892 C59.18,26.636 59.804,27.276 60.532,27.812 C61.26,28.348 62.072,28.76 62.968,29.048 C63.864,29.336 64.816,29.48 65.824,29.48 Z M65.848,26.192 C65.112,26.192 64.428,26.052 63.796,25.772 C63.164,25.492 62.62,25.096 62.164,24.584 C61.708,24.072 61.352,23.468 61.096,22.772 C60.84,22.076 60.712,21.312 60.712,20.48 C60.712,19.648 60.84,18.884 61.096,18.188 C61.352,17.492 61.708,16.888 62.164,16.376 C62.62,15.864 63.164,15.468 63.796,15.188 C64.428,14.908 65.112,14.768 65.848,14.768 C66.584,14.768 67.268,14.908 67.9,15.188 C68.532,15.468 69.076,15.864 69.532,16.376 C69.988,16.888 70.344,17.492 70.6,18.188 C70.856,18.884 70.984,19.648 70.984,20.48 C70.984,21.312 70.856,22.076 70.6,22.772 C70.344,23.468 69.988,24.072 69.532,24.584 C69.076,25.096 68.532,25.492 67.9,25.772 C67.268,26.052 66.584,26.192 65.848,26.192 Z M84.208,29 L84.208,22.376 L90.16,11.96 L86.272,11.96 L82.48,19.136 L78.664,11.96 L74.68,11.96 L80.632,22.376 L80.632,29 L84.208,29 Z M91.888,29 L93.28,25.256 L100.648,25.256 L102.04,29 L105.712,29 L98.92,11.96 L95.128,11.96 L88.36,29 L91.888,29 Z M99.52,22.232 L94.408,22.232 L96.952,15.44 L99.52,22.232 Z M118.192,29 L118.192,25.832 L111.232,25.832 L111.232,11.96 L107.656,11.96 L107.656,29 L118.192,29 Z M128.344,29.48 C129.368,29.48 130.328,29.332 131.224,29.036 C132.12,28.74 132.932,28.324 133.66,27.788 C134.388,27.252 135.016,26.612 135.544,25.868 C136.072,25.124 136.48,24.292 136.768,23.372 C137.056,22.452 137.2,21.48 137.2,20.456 C137.2,19.432 137.056,18.464 136.768,17.552 C136.48,16.64 136.076,15.812 135.556,15.068 C135.036,14.324 134.412,13.684 133.684,13.148 C132.956,12.612 132.144,12.2 131.248,11.912 C130.352,11.624 129.4,11.48 128.392,11.48 C127.368,11.48 126.408,11.628 125.512,11.924 C124.616,12.22 123.804,12.636 123.076,13.172 C122.348,13.708 121.72,14.348 121.192,15.092 C120.664,15.836 120.256,16.668 119.968,17.588 C119.68,18.508 119.536,19.48 119.536,20.504 C119.536,21.528 119.68,22.496 119.968,23.408 C120.256,24.32 120.66,25.148 121.18,25.892 C121.7,26.636 122.324,27.276 123.052,27.812 C123.78,28.348 124.592,28.76 125.488,29.048 C126.384,29.336 127.336,29.48 128.344,29.48 Z M128.368,26.192 C127.632,26.192 126.948,26.052 126.316,25.772 C125.684,25.492 125.14,25.096 124.684,24.584 C124.228,24.072 123.872,23.468 123.616,22.772 C123.36,22.076 123.232,21.312 123.232,20.48 C123.232,19.648 123.36,18.884 123.616,18.188 C123.872,17.492 124.228,16.888 124.684,16.376 C125.14,15.864 125.684,15.468 126.316,15.188 C126.948,14.908 127.632,14.768 128.368,14.768 C129.104,14.768 129.788,14.908 130.42,15.188 C131.052,15.468 131.596,15.864 132.052,16.376 C132.508,16.888 132.864,17.492 133.12,18.188 C133.376,18.884 133.504,19.648 133.504,20.48 C133.504,21.312 133.376,22.076 133.12,22.772 C132.864,23.468 132.508,24.072 132.052,24.584 C131.596,25.096 131.052,25.492 130.42,25.772 C129.788,26.052 129.104,26.192 128.368,26.192 Z M143.296,29 L143.296,22.976 C143.904,23.072 144.464,23.12 144.976,23.12 C145.328,23.12 145.656,23.112 145.96,23.096 L145.96,23.096 L149.008,29 L152.944,29 L149.08,22.16 C149.688,21.84 150.208,21.436 150.64,20.948 C151.072,20.46 151.408,19.916 151.648,19.316 C151.888,18.716 152.008,18.088 152.008,17.432 C152.008,16.312 151.736,15.34 151.192,14.516 C150.648,13.692 149.868,13.06 148.852,12.62 C147.836,12.18 146.632,11.96 145.24,11.96 L145.24,11.96 L139.768,11.96 L139.768,29 L143.296,29 Z M145.168,20.144 C144.832,20.144 144.512,20.132 144.208,20.108 C143.904,20.084 143.6,20.048 143.296,20 L143.296,20 L143.296,14.984 L145.168,14.984 C146.192,14.984 146.984,15.208 147.544,15.656 C148.104,16.104 148.384,16.736 148.384,17.552 C148.384,18.368 148.104,19.004 147.544,19.46 C146.984,19.916 146.192,20.144 145.168,20.144 Z M162.208,29 L162.208,22.376 L168.16,11.96 L164.272,11.96 L160.48,19.136 L156.664,11.96 L152.68,11.96 L158.632,22.376 L158.632,29 L162.208,29 Z" id="LOYALORY" fill="#4260FF" fill-rule="nonzero"></path>
    </g>
</svg>