<?xml version="1.0" encoding="UTF-8"?>
<svg width="170px" height="40px" viewBox="0 0 170 40" version="1.1" xmlns="http://www.w3.org/2000/svg" xmlns:xlink="http://www.w3.org/1999/xlink">
    <title>Logo</title>
    <g id="Logo" stroke="none" stroke-width="1" fill="none" fill-rule="evenodd">
        <path d="M53.672,29 L53.672,25.832 L46.712,25.832 L46.712,11.96 L43.136,11.96 L43.136,29 L53.672,29 Z M63.824,29.48 C64.848,29.48 65.808,29.332 66.704,29.036 C67.6,28.74 68.412,28.324 69.14,27.788 C69.868,27.252 70.496,26.612 71.024,25.868 C71.552,25.124 71.96,24.292 72.248,23.372 C72.536,22.452 72.68,21.48 72.68,20.456 C72.68,19.432 72.536,18.464 72.248,17.552 C71.96,16.64 71.556,15.812 71.036,15.068 C70.516,14.324 69.892,13.684 69.164,13.148 C68.436,12.612 67.624,12.2 66.728,11.912 C65.832,11.624 64.88,11.48 63.872,11.48 C62.848,11.48 61.888,11.628 60.992,11.924 C60.096,12.22 59.284,12.636 58.556,13.172 C57.828,13.708 57.2,14.348 56.672,15.092 C56.144,15.836 55.736,16.668 55.448,17.588 C55.16,18.508 55.016,19.48 55.016,20.504 C55.016,21.528 55.16,22.496 55.448,23.408 C55.736,24.32 56.14,25.148 56.66,25.892 C57.18,26.636 57.804,27.276 58.532,27.812 C59.26,28.348 60.072,28.76 60.968,29.048 C61.864,29.336 62.816,29.48 63.824,29.48 Z M63.848,26.192 C63.112,26.192 62.428,26.052 61.796,25.772 C61.164,25.492 60.62,25.096 60.164,24.584 C59.708,24.072 59.352,23.468 59.096,22.772 C58.84,22.076 58.712,21.312 58.712,20.48 C58.712,19.648 58.84,18.884 59.096,18.188 C59.352,17.492 59.708,16.888 60.164,16.376 C60.62,15.864 61.164,15.468 61.796,15.188 C62.428,14.908 63.112,14.768 63.848,14.768 C64.584,14.768 65.268,14.908 65.9,15.188 C66.532,15.468 67.076,15.864 67.532,16.376 C67.988,16.888 68.344,17.492 68.6,18.188 C68.856,18.884 68.984,19.648 68.984,20.48 C68.984,21.312 68.856,22.076 68.6,22.772 C68.344,23.468 67.988,24.072 67.532,24.584 C67.076,25.096 66.532,25.492 65.9,25.772 C65.268,26.052 64.584,26.192 63.848,26.192 Z M82.208,29 L82.208,22.376 L88.16,11.96 L84.272,11.96 L80.48,19.136 L76.664,11.96 L72.68,11.96 L78.632,22.376 L78.632,29 L82.208,29 Z M89.888,29 L91.28,25.256 L98.648,25.256 L100.04,29 L103.712,29 L96.92,11.96 L93.128,11.96 L86.36,29 L89.888,29 Z M97.52,22.232 L92.408,22.232 L94.952,15.44 L97.52,22.232 Z M116.192,29 L116.192,25.832 L109.232,25.832 L109.232,11.96 L105.656,11.96 L105.656,29 L116.192,29 Z M126.344,29.48 C127.368,29.48 128.328,29.332 129.224,29.036 C130.12,28.74 130.932,28.324 131.66,27.788 C132.388,27.252 133.016,26.612 133.544,25.868 C134.072,25.124 134.48,24.292 134.768,23.372 C135.056,22.452 135.2,21.48 135.2,20.456 C135.2,19.432 135.056,18.464 134.768,17.552 C134.48,16.64 134.076,15.812 133.556,15.068 C133.036,14.324 132.412,13.684 131.684,13.148 C130.956,12.612 130.144,12.2 129.248,11.912 C128.352,11.624 127.4,11.48 126.392,11.48 C125.368,11.48 124.408,11.628 123.512,11.924 C122.616,12.22 121.804,12.636 121.076,13.172 C120.348,13.708 119.72,14.348 119.192,15.092 C118.664,15.836 118.256,16.668 117.968,17.588 C117.68,18.508 117.536,19.48 117.536,20.504 C117.536,21.528 117.68,22.496 117.968,23.408 C118.256,24.32 118.66,25.148 119.18,25.892 C119.7,26.636 120.324,27.276 121.052,27.812 C121.78,28.348 122.592,28.76 123.488,29.048 C124.384,29.336 125.336,29.48 126.344,29.48 Z M126.368,26.192 C125.632,26.192 124.948,26.052 124.316,25.772 C123.684,25.492 123.14,25.096 122.684,24.584 C122.228,24.072 121.872,23.468 121.616,22.772 C121.36,22.076 121.232,21.312 121.232,20.48 C121.232,19.648 121.36,18.884 121.616,18.188 C121.872,17.492 122.228,16.888 122.684,16.376 C123.14,15.864 123.684,15.468 124.316,15.188 C124.948,14.908 125.632,14.768 126.368,14.768 C127.104,14.768 127.788,14.908 128.42,15.188 C129.052,15.468 129.596,15.864 130.052,16.376 C130.508,16.888 130.864,17.492 131.12,18.188 C131.376,18.884 131.504,19.648 131.504,20.48 C131.504,21.312 131.376,22.076 131.12,22.772 C130.864,23.468 130.508,24.072 130.052,24.584 C129.596,25.096 129.052,25.492 128.42,25.772 C127.788,26.052 127.104,26.192 126.368,26.192 Z M141.296,29 L141.296,22.976 C141.904,23.072 142.464,23.12 142.976,23.12 C143.328,23.12 143.656,23.112 143.96,23.096 L143.96,23.096 L147.008,29 L150.944,29 L147.08,22.16 C147.688,21.84 148.208,21.436 148.64,20.948 C149.072,20.46 149.408,19.916 149.648,19.316 C149.888,18.716 150.008,18.088 150.008,17.432 C150.008,16.312 149.736,15.34 149.192,14.516 C148.648,13.692 147.868,13.06 146.852,12.62 C145.836,12.18 144.632,11.96 143.24,11.96 L143.24,11.96 L137.768,11.96 L137.768,29 L141.296,29 Z M143.168,20.144 C142.832,20.144 142.512,20.132 142.208,20.108 C141.904,20.084 141.6,20.048 141.296,20 L141.296,20 L141.296,14.984 L143.168,14.984 C144.192,14.984 144.984,15.208 145.544,15.656 C146.104,16.104 146.384,16.736 146.384,17.552 C146.384,18.368 146.104,19.004 145.544,19.46 C144.984,19.916 144.192,20.144 143.168,20.144 Z M160.208,29 L160.208,22.376 L166.16,11.96 L162.272,11.96 L158.48,19.136 L154.664,11.96 L150.68,11.96 L156.632,22.376 L156.632,29 L160.208,29 Z" id="LOYALORY" fill="#4260FF" fill-rule="nonzero"></path>
        <g id="Group" transform="translate(6.000000, 6.000000)">
            <g id="Group-3" transform="translate(5.000000, 0.000000)" fill="#4960F6" fill-rule="nonzero">
                <path d="M8.79654424,18.9046572 L20.9520548,18.9041096 C22.0669459,18.9041096 22.9737593,19.794996 22.9994407,20.9037144 L23,20.9520548 C23,22.0669459 22.1091136,22.9737593 21.0003952,22.9994407 L20.9520548,23 L8.83588101,23.00096 C9.02122856,22.3720006 9.12068966,21.7062362 9.12068966,21.0172414 C9.12068966,20.2810001 9.00712016,19.5712843 8.79654424,18.9046572 Z M2.04794521,0 C3.16283627,0 4.06964967,0.890886385 4.09533109,1.99960484 L4.09589041,2.04794521 L4.09620013,14.2955781 C3.46796516,14.1106961 2.80303876,14.0114943 2.11494253,14.0114943 C1.37758682,14.0114943 0.666837044,14.1254078 -0.000668387019,14.3365965 L3.60600438e-13,2.04794521 C3.60600438e-13,0.9168963 0.9168963,0 2.04794521,0 Z" id="Combined-Shape"></path>
            </g>
            <g id="Group-2" transform="translate(5.000000, 14.000000)" fill="#4960F6" fill-rule="nonzero" opacity="0.5">
                <path d="M2.08695652,0 C2.76597404,0 3.42212655,0.0993364506 4.04206979,0.284468873 L4.04162899,4.89885126 L8.67987256,4.89854897 C8.88783577,5.56628138 9,6.27720232 9,7.01470588 C9,7.70458177 8.90185502,8.37119756 8.71896009,9.00096127 L2.02084574,9 C0.920707489,9 0.0258935108,8.10797437 0.000551915106,6.99783812 L-9.66701334e-05,0.32533733 C0.658412667,0.11399426 1.35956513,0 2.08695652,0 Z" id="Combined-Shape"></path>
            </g>
            <circle id="Oval" fill="#EC5E9B" opacity="0.5" cx="7" cy="21" r="7"></circle>
            <circle id="Oval" fill="#EC5E9B" cx="19" cy="9" r="7"></circle>
        </g>
    </g>
</svg>