<?xml version="1.0" encoding="UTF-8"?>
<svg width="128px" height="128px" viewBox="0 0 128 128" version="1.1" xmlns="http://www.w3.org/2000/svg" xmlns:xlink="http://www.w3.org/1999/xlink">
    <title>Advanced</title>
    <defs>
        <linearGradient x1="1.3903824%" y1="50%" x2="100.811214%" y2="50%" id="linearGradient-1">
            <stop stop-color="#FF7BB5" offset="0%"></stop>
            <stop stop-color="#F53689" offset="100%"></stop>
        </linearGradient>
        <linearGradient x1="0.0435302015%" y1="50.1280207%" x2="99.9853269%" y2="50.1280207%" id="linearGradient-2">
            <stop stop-color="#6880FF" offset="0%"></stop>
            <stop stop-color="#8396FF" offset="100%"></stop>
        </linearGradient>
        <linearGradient x1="8.01828772%" y1="16.131085%" x2="65.5268261%" y2="81.3553929%" id="linearGradient-3">
            <stop stop-color="#485FF6" offset="0%"></stop>
            <stop stop-color="#0B32FF" stop-opacity="0.1894941" offset="100%"></stop>
        </linearGradient>
        <linearGradient x1="78.3107725%" y1="76.2775342%" x2="22.4558238%" y2="20.4991087%" id="linearGradient-4">
            <stop stop-color="#C3CDFF" offset="0%"></stop>
            <stop stop-color="#FFFFFF" offset="100%"></stop>
        </linearGradient>
    </defs>
    <g id="Advanced" stroke="none" stroke-width="1" fill="none" fill-rule="evenodd">
        <g id="36" transform="translate(1.000000, 3.000000)">
            <path d="M104.605884,59.0837339 C114.464705,49.2992204 114.464705,33.1398018 104.605884,23.3456293 C94.7460864,13.5514569 78.478055,13.5514569 68.6186479,23.3456293 L13.8988703,77.5709588 L10.5713229,80.8743187 C8.47622571,82.9606513 8.47622571,86.1384449 10.5713229,87.9833038 C12.6665177,89.9344111 15.8708298,90.0599775 17.7194565,87.9833038 L17.8426917,87.8577375 C19.6913183,85.8969712 23.1421011,85.8969712 24.9907277,87.8577375 C26.8393543,89.8185038 26.8393543,93.1218637 24.9907277,94.9570637 L21.539945,98.3859899 L18.2123975,101.814916 C16.1173004,103.89159 16.3637709,107.079042 18.2123975,108.914242 C19.1983773,109.889796 20.4307299,110.382402 21.9096508,110.382402 C23.1421011,110.382402 24.4977866,109.889796 25.6070017,108.914242 L28.9345491,105.610882 L30.7831757,103.650116 C32.6318023,101.68935 36.0825851,101.68935 37.9312117,103.650116 C39.7798383,105.610882 39.7798383,108.914242 37.9312117,110.749442 L35.9593498,112.710209 L36.3290556,112.343169 C34.2339584,114.419842 34.2339584,117.607295 36.3290556,119.442495 C38.4241527,121.519168 41.6284649,121.519168 43.4770915,119.442495 L104.605884,59.0837339 Z" id="Path" fill="#485FF6" fill-rule="nonzero"></path>
            <path d="M38,66 L33,71 L38,66 Z" id="Path" fill="url(#linearGradient-1)" fill-rule="nonzero"></path>
            <path d="M109,39.6066865 C109,35.5268895 107.888757,31.320209 105.543017,27.8553097 C103.444764,24.6441776 100.481775,22.0479432 97.1480467,20.4374971 C89.2470706,16.2308165 79.2469605,17.470372 72.5802857,24.1464034 L42.9506959,53.8371743 L42.9506959,53.9640579 L35.4197754,61.6258775 C34.43208,62.6214261 34.43208,63.9781049 35.4197754,64.9736535 C36.4074708,65.9594417 37.7654175,65.9594417 38.7531128,64.9736535 L45.296338,58.4147455 C46.2839355,57.419197 47.64198,57.419197 48.6296754,58.4147455 C49.6173708,59.4005337 49.6173708,60.7669729 48.6296754,61.7527612 L29.7406982,80.8048272 C28.7531006,81.7906154 28.7531006,83.1570546 29.7406982,84.1428429 C30.7283936,85.1286311 32.086438,85.1286311 33.0740356,84.1428429 L40.234607,76.9690373 L43.321045,73.8750286 C44.3086426,72.8892403 45.666687,72.8892403 46.6543824,73.8750286 C47.64198,74.8705771 47.64198,76.227256 46.6543824,77.2130443 L43.5679444,80.3070529 L42.9506959,80.9317108 C41.9630006,81.9174991 41.9630006,83.274178 42.9506959,84.2697265 C43.9382935,85.2555147 45.296338,85.2555147 46.2839355,84.2697265 L48.0124269,82.5323967 C49.0000245,81.5466085 50.3580689,81.5466085 51.3457643,82.5323967 C52.3333619,83.5279452 52.3333619,84.8846241 51.3457643,85.8801726 L50.2346192,86.9928445 L43.5679444,93.6688759 C42.580249,94.6546641 42.580249,96.0211033 43.5679444,97.0068915 C44.555542,98.0024401 45.9135864,98.0024401 46.9012818,97.0068915 L53.5679566,90.3308602 L63.3210695,80.5608202 C64.308667,79.5652717 65.6667115,79.5652717 66.6544069,80.5608202 C67.3951051,81.3026015 67.6420044,82.786164 66.7778566,83.7719522 L56.901294,93.9128829 C55.9135987,94.9084314 55.9135987,96.2651103 56.901294,97.2606588 C57.8889894,98.2464471 59.2469361,98.2464471 60.2346315,97.2606588 L85.4198366,71.8936918 C85.7901857,71.8936918 85.7901857,71.7765684 85.9136353,71.4056778 L102.827515,54.4520719 C107.025001,50.4991586 109,45.0529226 109,39.6066865 Z" id="Path" fill="url(#linearGradient-2)" fill-rule="nonzero"></path>
            <path d="M53.4190069,100.660092 C52.5335964,99.7799692 51.3161898,99.7799692 50.430867,100.660092 L47.6640579,103.395378 C46.7786474,104.266872 46.7786474,105.466256 47.6640579,106.346379 C48.5494684,107.217874 49.7667872,107.217874 50.6521977,106.346379 L53.4190069,103.611094 C54.1936644,102.739599 54.1936644,101.315871 53.4190069,100.660092 Z" id="Path" fill="#6880FF" fill-rule="nonzero"></path>
            <path d="M90,60.5974622 L76.7130712,74.1307243 C76.2209844,74.6305044 75.6057784,74.7578994 74.9906699,74.7578994 C74.3754639,74.7578994 73.7603554,74.6305044 73.2682686,74.1307243 C72.5300409,73.3859539 72.2839975,71.8964131 73.1452469,70.9066524 L78.0664074,65.9382499 C79.050581,64.9484892 79.050581,63.5765438 78.0664074,62.5867831 C77.0821363,61.5872228 75.7288001,61.5872228 74.7446265,62.5867831 L62.195633,75.2576795 C61.2113618,76.2474402 59.8581231,76.2474402 58.873852,75.2576795 C57.8895809,74.2581192 57.8895809,72.8959734 58.873852,71.8964131 L67.4858586,63.0767636 C68.4701297,62.087003 68.4701297,60.7248571 67.4858586,59.7252968 C66.501685,58.7355362 65.1483488,58.7355362 64.1640777,59.7252968 L60.2271882,63.7039387 C59.2429171,64.6936994 57.8895809,64.6936994 56.9054073,63.7039387 C55.9211362,62.7043784 55.9211362,61.3422326 56.9054073,60.3524719 L63.4259475,53.7671336 C64.4101211,52.777373 64.4101211,51.4054275 63.4259475,50.4156668 C62.4416764,49.4161065 61.0883401,49.4161065 60.1041665,50.4156668 L55.0599843,55.1292795 C54.0757132,56.1288398 52.7223769,56.1288398 51.7382033,55.1292795 C50.7539322,54.1395188 50.7539322,52.777373 51.7382033,51.7778127 L66.3786633,37 C65.886479,41.9684025 67.1167935,46.9368051 69.8234659,51.1604372 C71.1767047,53.3947484 73.0222252,55.1292795 75.1136916,56.7462152 C75.7288001,57.2459954 76.4670278,57.7457755 77.3281797,58.1181607 C77.9433857,58.4905459 78.6815159,58.8629311 79.665787,59.2353163 C80.1578739,59.3529116 80.526939,59.6077015 81.0190258,59.7252968 C83.2336114,60.3524719 85.3250778,60.7248571 87.6623927,60.7248571 C88.1546745,60.7248571 88.6469562,60.5974622 89.2620647,60.7248571 C89.6315198,60.7248571 89.7543465,60.5974622 90,60.5974622 Z" id="Path" fill="#FFFFFF" fill-rule="nonzero"></path>
            <path d="M83.5136833,4.61005199 C84.1621056,3.94454073 84.1621056,3.02946274 83.5136833,2.49913345 C82.8653638,1.83362218 81.9576137,1.83362218 81.4389581,2.49913345 C80.9203025,3.1542461 80.7906386,4.0797227 81.4389581,4.61005199 C82.0872776,5.12998267 82.9950277,5.12998267 83.5136833,4.61005199 Z" id="Path" fill="#485FF6" fill-rule="nonzero"></path>
            <path d="M63.5285502,13.5977654 C64.1571499,12.9608939 64.1571499,12.0055866 63.5285502,11.4776536 C62.8998674,10.8407821 61.9568847,10.8407821 61.4330516,11.4776536 C60.9092184,12.1145251 60.8044518,13.0698324 61.4330516,13.5977654 C62.0616513,14.1340782 63.004634,14.1340782 63.5285502,13.5977654 Z" id="Path" fill="#485FF6" fill-rule="nonzero"></path>
            <path d="M72.7143046,1.71294559 C73.0952318,1.33020638 73.0952318,0.669793621 72.7143046,0.287054409 C72.3333019,-0.095684803 71.6666792,-0.095684803 71.285752,0.287054409 C70.9047493,0.669793621 70.9047493,1.33020638 71.285752,1.71294559 C71.7619111,2.0956848 72.3333019,2.0956848 72.7143046,1.71294559 Z" id="Path" fill="#485FF6" fill-rule="nonzero"></path>
            <path d="M100.558741,75.5614849 C101.147086,74.9767981 101.147086,74.0301624 100.558741,73.4454756 C99.9703963,72.8515081 99.0296037,72.8515081 98.4412587,73.4454756 C97.8529138,74.0301624 97.8529138,74.9767981 98.4412587,75.5614849 C99.0296037,76.1461717 99.9703963,76.1461717 100.558741,75.5614849 Z" id="Path" fill="#485FF6" fill-rule="nonzero"></path>
            <path d="M126.534568,41.5648375 C127.155144,40.9360386 127.155144,39.9928403 126.534568,39.4715991 C125.913991,38.8428003 124.982716,38.8428003 124.465432,39.4715991 C123.844856,40.100398 123.844856,41.0435963 124.465432,41.5648375 C125.086009,42.0943523 125.913991,42.1936363 126.534568,41.5648375 Z" id="Path" fill="#485FF6" fill-rule="nonzero"></path>
            <path d="M125.774172,53.2684333 C126.175744,52.6274239 126.041886,51.599774 125.371537,51.2131334 C124.701188,50.8264929 123.628204,50.9485899 123.226631,51.721871 C122.823997,52.3730551 122.957854,53.4007051 123.628204,53.7873456 C124.433473,54.1739862 125.371537,54.0518892 125.774172,53.2684333 Z" id="Path" fill="#485FF6" fill-rule="nonzero"></path>
            <path d="M113.674216,64.0716262 C114.27204,63.1182277 114.032342,61.9193998 113.076393,61.3247056 C112.119496,60.7300115 110.923849,60.9660012 110.326026,61.9193998 C109.728202,62.8822379 109.966953,64.0716262 110.923849,64.67576 C111.880746,65.2704541 113.076393,65.0344644 113.674216,64.0716262 Z" id="Path" fill="#485FF6" fill-rule="nonzero"></path>
            <path d="M71.684171,14.7540453 C72.1052763,14.3139159 72.1052763,13.7702265 71.684171,13.3300971 C71.2631491,12.8899676 70.7368717,12.8899676 70.3157664,13.3300971 C69.8947445,13.7702265 69.8947445,14.3139159 70.3157664,14.7540453 C70.7368717,15.0819849 71.3684046,15.0819849 71.684171,14.7540453 Z" id="Path" fill="#485FF6" fill-rule="nonzero"></path>
            <path d="M96.6847044,1.71542834 C97.1050985,1.29134222 97.1050985,0.748511994 96.6847044,0.324425878 C96.2634762,-0.108141959 95.7371494,-0.108141959 95.3159212,0.324425878 C94.8946929,0.748511994 94.8946929,1.29134222 95.3159212,1.71542834 C95.7371494,2.14799618 96.3685747,2.03773379 96.6847044,1.71542834 Z" id="Path" fill="#485FF6" fill-rule="nonzero"></path>
            <path d="M126.70943,65.7102922 C127.096857,65.3240152 127.096857,64.6836086 126.70943,64.2973316 C126.322004,63.9008895 125.676974,63.9008895 125.29057,64.2973316 C124.903143,64.6836086 124.903143,65.3240152 125.29057,65.7102922 C125.676974,66.0965693 126.322004,66.0965693 126.70943,65.7102922 Z" id="Path" fill="#485FF6" fill-rule="nonzero"></path>
            <path d="M123.710086,23.7091837 C124.096638,23.3214286 124.096638,22.6785714 123.710086,22.2908163 C123.322511,21.9030612 122.677234,21.9030612 122.290681,22.2908163 C121.903106,22.6785714 121.903106,23.3214286 122.290681,23.7091837 C122.677234,24.0969388 123.322511,24.0969388 123.710086,23.7091837 Z" id="Path" fill="#485FF6" fill-rule="nonzero"></path>
            <path d="M57.2415535,27.2420213 C58.2528155,26.231383 58.2528155,24.768617 57.2415535,23.7579787 C56.2302916,22.7473404 54.7696194,22.7473404 53.7584465,23.7579787 C52.7471845,24.768617 52.7471845,26.231383 53.7584465,27.2420213 C54.6572669,28.2526596 56.2302916,28.2526596 57.2415535,27.2420213 Z" id="Path" fill="#485FF6" fill-rule="nonzero"></path>
            <path d="M54.4444142,67.6288533 C53.597903,66.7903822 52.4338663,66.7903822 51.5872713,67.6288533 L50.6349463,68.5659679 C49.7883512,69.3962187 49.7883512,70.5470612 50.6349463,71.377312 C51.4814574,72.2075627 52.6454941,72.2075627 53.4920891,71.377312 L54.4444142,70.4401973 C55.1851953,69.6099466 55.1851953,68.2535964 54.4444142,67.6288533 Z" id="Path" fill="#485FF6" fill-rule="nonzero"></path>
            <path d="M38.8677375,90.6459893 C39.7941007,91.2637434 41.0293332,91.0605348 41.6469902,90.1339038 C42.2645657,89.2072727 42.0587072,87.9717647 41.1322625,87.3540107 C40.2058993,86.7362566 38.9706668,86.9394652 38.3530098,87.8660962 C37.7354343,88.7927273 37.9412928,90.0282353 38.8677375,90.6459893 Z" id="Path" fill="#485FF6" fill-rule="nonzero"></path>
            <path d="M21.8677216,93.6459893 C22.7941697,94.2637434 24.0294066,94.0605348 24.6469843,93.1339038 C25.264562,92.2072727 25.0587028,90.9717647 24.1323363,90.3540107 C23.2058882,89.7362566 21.9706512,89.9394652 21.3530736,90.8660962 C20.7354143,91.7927273 20.9412735,93.1339038 21.8677216,93.6459893 Z" id="Path" fill="#485FF6" fill-rule="nonzero"></path>
            <path d="M2.01383468,98.2563311 C4.05025586,99.5805836 6.87867338,99.1362621 8.23631737,96.9233663 C9.59396137,94.9369875 9.14144325,92.1752239 6.87867338,90.7464251 C4.8422522,89.4221725 2.01383468,89.8577819 0.656190687,92.0706776 C-0.588323779,94.0570565 -0.022586489,96.8188201 2.01383468,98.2563311 Z" id="Path" fill="#485FF6" fill-rule="nonzero"></path>
            <path d="M23.3856893,117.068624 C22.700011,118.214198 22.9285704,119.702543 24.0714582,120.61359 C25.2142554,121.29913 26.6999824,121.073624 27.6143107,119.928049 C28.299989,118.782475 28.0714296,117.303151 26.9285418,116.383084 C26.3571432,116.040314 25.7857446,115.93207 24.985696,116.040314 C24.4142974,116.040314 23.7285285,116.500347 23.3856893,117.068624 C23.3856893,116.843118 23.3856893,117.068624 23.3856893,117.068624 Z" id="Path" fill="#485FF6" fill-rule="nonzero"></path>
            <path d="M32.3845888,67.6130501 C31.5641218,66.79565 30.4358985,66.79565 29.6153502,67.6130501 C28.7948833,68.4304502 28.7948833,69.56348 29.6153502,70.3808801 C30.4358985,71.2063733 31.5641218,71.2063733 32.3845888,70.3808801 C33.2051371,69.6686899 33.2051371,68.3333333 32.3845888,67.6130501 Z" id="Path" fill="#485FF6" fill-rule="nonzero"></path>
            <path d="M108,43.5803373 C107.03194,49.3932549 103.765455,54.4712059 98.8063017,57.8596882 C98.5647658,58.0983137 98.2015035,58.222399 97.9590092,58.4610245 C96.9919073,59.0719058 95.782311,59.5491569 94.8142506,60.0359529 C94.5727148,60.1600382 94.2094525,60.2745784 93.9679166,60.3986637 L93.8461902,60.3986637 C93.1206242,60.6372892 92.3950581,60.7613745 91.79026,61 L79.6935306,48.9064588 L84.6531628,43.943048 L78,37.2901686 C78.1209596,33.0617245 79.572571,31.4867961 84.2901881,31 L90.8221996,37.5383392 L96.2663412,32.0881324 L104.491979,40.3159402 L108,43.5803373 Z" id="Path" fill="url(#linearGradient-3)" fill-rule="nonzero"></path>
            <path d="M84.7032117,36.8333333 C86.4285296,35.0882353 86.4285296,32.1078431 84.7032117,30.372549 C83.8404063,29.5 82.7312106,29 81.4986733,29 C80.266136,29 79.1569403,29.5 78.2941349,30.372549 C76.5686217,32.1078431 76.5686217,35.0882353 78.2941349,36.8333333 C79.1569403,37.7058824 80.266136,38.1960784 81.4986733,38.1960784 C82.7312106,38.0784314 83.8404063,37.7058824 84.7032117,36.8333333 Z M81.4986733,31.7352941 C82.4847227,31.7352941 83.2241865,32.4803922 83.2241865,33.4803922 C83.2241865,34.4705882 82.4847227,35.2156863 81.4986733,35.2156863 C80.5126239,35.2156863 79.7731601,34.4705882 79.7731601,33.4803922 C79.7731601,32.4803922 80.5126239,31.7352941 81.4986733,31.7352941 Z M97.6445117,43.1666667 C96.7821946,42.3039216 95.6728036,41.8039216 94.4403639,41.8039216 C93.2079243,41.8039216 92.0985332,42.3039216 91.2352395,43.1666667 C90.3729224,44.0392157 89.8797512,45.1568627 89.8797512,46.4019608 C89.8797512,47.6470588 90.3729224,48.7647059 91.2352395,49.627451 C92.0985332,50.5 93.2079243,51 94.4403639,51 C95.6728036,51 96.7821946,50.5 97.6445117,49.627451 C98.5078054,48.7647059 99,47.6470588 99,46.4019608 C99,45.1568627 98.5078054,44.0392157 97.6445117,43.1666667 Z M94.5634126,48.1372549 C93.5770702,48.1372549 92.8378017,47.3921569 92.8378017,46.4019608 C92.8378017,45.4019608 93.5770702,44.6568627 94.5634126,44.6568627 C95.5497549,44.6568627 96.2890234,45.4019608 96.2890234,46.4019608 C96.2890234,47.3921569 95.5497549,48.1372549 94.5634126,48.1372549 Z M95.5497549,30.6176471 C96.0419495,30.6176471 96.412072,30.745098 96.7821946,31.1176471 C97.3984144,31.8627451 97.3984144,32.9803922 96.7821946,33.5980392 L82.1148931,48.3921569 C81.7451612,48.7647059 81.3754293,48.8823529 80.8823558,48.8823529 C80.38938,48.8823529 80.0196481,48.7647059 79.6499162,48.3921569 C79.2800866,48.0196078 79.1568426,47.6470588 79.1568426,47.1470588 C79.1568426,46.6470588 79.2800866,46.2745098 79.6499162,45.9019608 L94.3163387,31.1176471 C94.6864612,30.745098 95.0565837,30.6176471 95.5497549,30.6176471 Z" id="Shape" fill="url(#linearGradient-4)"></path>
        </g>
    </g>
</svg>