<?xml version="1.0" encoding="UTF-8"?>
<svg width="128px" height="128px" viewBox="0 0 128 128" version="1.1" xmlns="http://www.w3.org/2000/svg" xmlns:xlink="http://www.w3.org/1999/xlink">
    <title>Basic</title>
    <defs>
        <linearGradient x1="1.78628816%" y1="52.5937749%" x2="96.8612748%" y2="52.5937749%" id="linearGradient-1">
            <stop stop-color="#83A6FF" offset="0%"></stop>
            <stop stop-color="#5A78FF" offset="100%"></stop>
        </linearGradient>
        <linearGradient x1="0.886448848%" y1="52.0085129%" x2="95.9614355%" y2="52.0085129%" id="linearGradient-2">
            <stop stop-color="#FF66A9" offset="0%"></stop>
            <stop stop-color="#F53689" offset="100%"></stop>
        </linearGradient>
        <linearGradient x1="3.1303358%" y1="50.8196721%" x2="98.0079681%" y2="50.8196721%" id="linearGradient-3">
            <stop stop-color="#83A6FF" offset="0%"></stop>
            <stop stop-color="#5A78FF" offset="100%"></stop>
        </linearGradient>
        <linearGradient x1="-0.219913123%" y1="50.3229479%" x2="99.4647611%" y2="50.3229479%" id="linearGradient-4">
            <stop stop-color="#FF66A9" offset="0%"></stop>
            <stop stop-color="#F53689" offset="100%"></stop>
        </linearGradient>
        <linearGradient x1="0.00961506418%" y1="50.0466741%" x2="99.970453%" y2="50.0466741%" id="linearGradient-5">
            <stop stop-color="#83A6FF" offset="0%"></stop>
            <stop stop-color="#2C466C" offset="100%"></stop>
        </linearGradient>
        <linearGradient x1="35.1865347%" y1="10.4578484%" x2="70.7633395%" y2="91.1213039%" id="linearGradient-6">
            <stop stop-color="#2C466C" offset="0%"></stop>
            <stop stop-color="#3E5B85" offset="100%"></stop>
        </linearGradient>
        <linearGradient x1="133.333806%" y1="248.598409%" x2="28.740007%" y2="3.0785344%" id="linearGradient-7">
            <stop stop-color="#C2D1FF" offset="1.13208%"></stop>
            <stop stop-color="#FFFFFF" offset="100%"></stop>
        </linearGradient>
        <linearGradient x1="68.7912361%" y1="72.8052355%" x2="28.6356289%" y2="24.8880434%" id="linearGradient-8">
            <stop stop-color="#C2D1FF" offset="1.13208%"></stop>
            <stop stop-color="#FFFFFF" offset="100%"></stop>
        </linearGradient>
        <linearGradient x1="61.3868943%" y1="78.4487036%" x2="-43.2029268%" y2="-167.727074%" id="linearGradient-9">
            <stop stop-color="#C2D1FF" offset="1.13208%"></stop>
            <stop stop-color="#FFFFFF" offset="100%"></stop>
        </linearGradient>
        <linearGradient x1="0.0162029756%" y1="49.9956743%" x2="100.209341%" y2="49.9956743%" id="linearGradient-10">
            <stop stop-color="#FF66A9" offset="0%"></stop>
            <stop stop-color="#F53689" offset="100%"></stop>
        </linearGradient>
    </defs>
    <g id="Basic" stroke="none" stroke-width="1" fill="none" fill-rule="evenodd">
        <g id="21" transform="translate(0.000000, 10.000000)">
            <path d="M120,50.4995487 C120,61.4769168 116.273803,71.6563247 110.029235,79.839027 C106.604765,84.2305158 102.475042,88.1219256 97.7409459,91.1160815 C90.0867881,96.1060404 80.9209661,99 71.0504408,99 C43.956868,98.8998036 22,77.1445575 22,50.400255 C22,23.6550498 43.956868,2 70.9497426,2 C80.7194782,2 89.885025,4.89395956 97.6400644,9.78372216 C102.37416,12.7778781 106.503884,16.6692878 109.928354,21.0607767 C116.172921,29.3436753 120,39.4228869 120,50.4995487 Z" id="Path" fill="#EAEEF9" fill-rule="nonzero"></path>
            <path d="M15.5,57 C16.2941082,57 17,56.3822825 17,55.500399 C17,54.7063049 16.3823246,54 15.5,54 C14.7058918,54 14,54.6177175 14,55.500399 C14.0882164,56.3822825 14.7058918,57 15.5,57 Z" id="Path" fill="url(#linearGradient-1)" fill-rule="nonzero"></path>
            <path d="M24.5,94 C25.2941082,94 26,93.3822825 26,92.500399 C26,91.6177175 25.3823246,91 24.5,91 C23.7058918,91 23,91.6177175 23,92.500399 C23,93.3822825 23.7058918,94 24.5,94 Z" id="Path" fill="url(#linearGradient-2)" fill-rule="nonzero"></path>
            <path d="M124.871295,31.0606345 C126.293554,29.73262 126.388544,27.5518622 125.060412,26.1286218 C123.733143,24.7062393 121.551827,24.6118714 120.128705,25.939028 C118.706446,27.2670426 118.611456,29.4486582 119.939588,30.8710407 C121.266857,32.2934232 123.448173,32.3886491 124.871295,31.0606345 Z" id="Path" fill="#EAEEF9" fill-rule="nonzero"></path>
            <path d="M120.5,16 C121.344337,16 122,15.343697 122,14.5 C122,13.656303 121.344337,13 120.5,13 C119.656517,13 119,13.656303 119,14.5 C119.09391,15.343697 119.750427,16 120.5,16 Z" id="Path" fill="url(#linearGradient-3)" fill-rule="nonzero"></path>
            <path d="M38.9840685,31 C35.7198361,31 29.0859995,30.4814347 26.8748165,26.3263363 C25.6112148,24.0416429 25.716491,21.5493354 27.1906449,19.3679792 C28.770171,17.0832857 31.5079266,15.733325 34.3509583,16.0442763 C37.8258389,16.356167 40.4583183,18.7451372 42.7748734,21.2374447 C43.0907019,21.5493354 43.0907019,22.0688401 42.6695972,22.3797914 C42.3536728,22.6916821 41.8271961,22.6916821 41.5112717,22.2764541 C39.405269,19.9917607 37.0887139,17.9137418 34.2456822,17.6027905 C32.0344033,17.3951765 29.8231244,18.4332465 28.6648948,20.1993747 C27.6118455,21.8602867 27.5065693,23.7297521 28.4542466,25.3916036 C30.8760778,29.8576533 40.6688706,29.1305345 40.7741468,29.1305345 C41.1953474,29.1305345 41.6165479,29.4424253 41.7218241,29.8576533 C41.7218241,30.2728813 41.4059956,30.6890487 40.984795,30.792386 C40.6688706,31 40.0371178,31 38.9840685,31 Z" id="Path" fill="url(#linearGradient-4)" fill-rule="nonzero"></path>
            <path d="M71.2161368,22.6273451 L58.4245653,18.7741097 C50.3668154,16.3407287 41.7047732,19.7885535 37.4744522,27.0896137 L30.8268704,38.7511313 C29.9203861,40.3727738 29.7188942,42.4016614 30.4239783,44.1251152 L55.0000285,106.589538 C55.8058127,108.515697 58.0216733,109.530141 59.9353419,108.718402 L97.6055223,93.710871 C99.5186407,92.9000497 100.526559,90.6693741 99.7204077,88.7422977 L75.2450576,26.2778752 C74.5399735,24.4526102 73.029197,23.134567 71.2161368,22.6273451 Z M51.7768918,32.3627036 C49.4603311,33.2753361 46.8415785,32.1599983 45.9350942,29.8275113 C45.0286099,27.4950243 46.1364944,24.858938 48.4531468,23.9463055 C50.7697075,23.033673 53.3884602,24.1490108 54.2949444,26.4805806 C55.2014287,28.8130675 54.0935442,31.450071 51.7768918,32.3627036 Z" id="Shape" fill="#2C466C" fill-rule="nonzero"></path>
            <path d="M92.8629131,88.2379208 C93.263799,89.3683577 92.7624634,90.6010545 91.6593424,91.0128831 L59.9683563,103.859517 C58.8651439,104.270416 57.6616645,103.756328 57.2605047,102.625891 L49.1372239,81.7630088 C48.7360641,80.632572 49.237491,79.3989455 50.340612,78.9880466 L82.0317808,66.1404826 C83.1349931,65.7295837 84.3383812,66.2436722 84.739541,67.374109 L92.8629131,88.2379208 Z" id="Path" fill="#FFFFFF" fill-rule="nonzero"></path>
            <path d="M60.4459925,98 C60.2202384,98 59.9944079,97.8105505 59.919182,97.5278042 L55.0271305,81.9443916 C54.9519045,81.5664445 55.0271305,81.1884975 55.3281868,81.0942488 C55.4034127,81.0942488 55.478715,81 55.5539409,81 C55.7797714,81 56.0055255,81.1884975 56.0808278,81.4721958 L60.9728793,97.0556084 C61.0481052,97.4326035 60.9728029,97.8105505 60.6718229,97.9047992 C60.5965206,98 60.5212947,98 60.4459925,98 Z" id="Path" fill="#2C4468" fill-rule="nonzero"></path>
            <path d="M62.4423515,92 C62.2154642,92 62.0642316,91.8059503 61.9886537,91.6109205 L58.0566834,78.8742037 C57.9811055,78.680154 57.9811055,78.5831292 58.0566834,78.3880994 C58.1323381,78.1940497 58.207916,78.0970249 58.2835707,78.0970249 L58.4348033,78 C58.5103812,78 58.5103812,78 58.5860358,78 C58.8128463,78 58.9640789,78.1940497 59.0397336,78.3880994 L62.9716271,91.1248162 C63.0472818,91.4168708 62.9716271,91.8059503 62.7448166,91.9029751 L62.593584,92 C62.5179294,92 62.4423515,92 62.4423515,92 Z" id="Path" fill="#2C4468" fill-rule="nonzero"></path>
            <path d="M67.3761341,91 C67.1527034,91 67.0037245,90.8049839 66.9291972,90.6109478 L63.0558955,77.8751225 C62.9813682,77.6810864 62.9813682,77.5840683 63.0558955,77.3890522 C63.1303471,77.1950161 63.2048744,77.097998 63.2793261,77.097998 L63.4283051,77 C63.5028323,77 63.5028323,77 63.577284,77 C63.8007902,77 63.9497692,77.1950161 64.0242209,77.3890522 L67.9720499,90.1248775 C68.0465772,90.4159317 67.9720499,90.8049839 67.7486193,90.902002 L67.5996403,91 C67.525113,91 67.4506613,91 67.3761341,91 Z" id="Path" fill="#2C4468" fill-rule="nonzero"></path>
            <path d="M70.3518115,90 C70.1296227,90 69.9814717,89.8049839 69.9073587,89.6109478 L66.0555848,76.8751225 C65.9814717,76.6810864 65.9814717,76.5840683 66.0555848,76.3890522 C66.1296227,76.1950161 66.2037357,76.097998 66.2777736,76.097998 L66.5000376,76 C66.5740755,76 66.6481885,76 66.6481885,76 C66.8703773,76 67.0185283,76.1950161 67.0925661,76.3890522 L70.9444152,89.0278594 C71.0185283,89.2218956 71.0185283,89.3189136 70.9444152,89.5139297 C70.8703773,89.7079658 70.7962643,89.8049839 70.7222264,89.8049839 L70.5740755,89.902002 C70.4999624,89.902002 70.4259245,90 70.3518115,90 Z" id="Path" fill="#2C4468" fill-rule="nonzero"></path>
            <path d="M73.3726621,89 C73.1479001,89 72.9980841,88.8059503 72.9232141,88.6119006 L69.0280739,75.8751838 C68.9532039,75.5831292 69.0280739,75.1950298 69.2528359,75.0970249 L69.4026519,75 C69.4775219,75 69.5524679,75 69.5524679,75 C69.7771539,75 69.9269699,75.1950298 70.0019159,75.3890795 L73.9719261,88.1257963 C74.0467961,88.4168708 73.9719261,88.8059503 73.7471641,88.9029751 L73.5973481,89 C73.4475321,89 73.4475321,89 73.3726621,89 Z" id="Path" fill="#2C4468" fill-rule="nonzero"></path>
            <path d="M77.4139862,87 C77.1871,87 77.0358682,86.8059503 76.9602906,86.6109205 L73.0283392,73.8751838 C72.9527616,73.5831292 73.0283392,73.1940497 73.2552253,73.0970249 L73.4064572,73 C73.4820347,73 73.557689,73 73.557689,73 C73.7844984,73 73.9357303,73.1940497 74.0113079,73.3890795 L77.9432593,86.1248162 C78.0189136,86.319846 78.0189136,86.4168708 77.9432593,86.6109205 C77.8676817,86.8059503 77.7920274,86.9029751 77.7164499,86.9029751 L77.565218,87 C77.4895637,87 77.4139862,87 77.4139862,87 Z" id="Path" fill="#2C4468" fill-rule="nonzero"></path>
            <path d="M80.4391288,86 C80.2110252,86 80.0589305,85.8049702 79.9829217,85.6109205 L76.0285347,72.8742037 C75.9524487,72.5831292 76.0285347,72.1940497 76.2566382,72.0970249 L76.408733,72 C76.484819,72 76.5608278,72 76.5608278,72 C76.7890085,72 76.9411033,72.1940497 77.0171121,72.3880994 L80.9714991,85.1248162 C81.0475079,85.4168708 80.9714991,85.8049702 80.7433184,85.9029751 L80.5912236,86 C80.5912236,86 80.5152148,86 80.4391288,86 Z" id="Path" fill="#2C4468" fill-rule="nonzero"></path>
            <path d="M64.5931353,95 C64.4275871,95 64.3172402,94.8185151 64.2620948,94.6361137 L64.0414011,93.8175985 C63.9861996,93.6361137 63.9861996,93.5453712 64.0414011,93.3629698 C64.0965465,93.1814849 64.1517479,93.0907424 64.2068934,93.0907424 L64.3172402,93 C64.3724416,93 64.3724416,93 64.4275871,93 C64.5931353,93 64.7034822,93.1814849 64.7586276,93.3629698 L64.9793213,94.1814849 C65.0344668,94.4546288 64.9793213,94.8185151 64.813829,94.9092576 L64.7034822,95 C64.7034822,95 64.6482808,95 64.5931353,95 Z" id="Path" fill="#2C4468" fill-rule="nonzero"></path>
            <path d="M68.5931359,94 C68.4275874,94 68.3172405,93.8176821 68.262095,93.6362803 L68.0414011,92.8181402 C67.9861996,92.6367384 67.9861996,92.5460376 68.0414011,92.3637197 C68.0965466,92.1823179 68.1517481,92.091617 68.2068935,92.091617 L68.3172405,92 C68.372442,92 68.372442,92 68.4275874,92 C68.5931359,92 68.7034828,92.1823179 68.7586283,92.3637197 L68.9793222,93.1818598 C69.0344677,93.4548786 68.9793222,93.8176821 68.8137738,93.9092991 L68.7034828,94 C68.6482813,94 68.6482813,94 68.5931359,94 Z" id="Path" fill="#2C4468" fill-rule="nonzero"></path>
            <path d="M71.5811176,93 C71.4189236,93 71.3108125,92.8176821 71.2567844,92.6362803 L71.0405622,91.8181402 C70.9864793,91.6367384 70.9864793,91.5460376 71.0405622,91.3637197 C71.0945903,91.1823179 71.1486733,91.091617 71.2027014,91.091617 L71.3108125,91 C71.3648954,91 71.4189236,91 71.4189236,91 C71.5811176,91 71.6892287,91.1823179 71.7432568,91.3637197 L71.9594789,92.1818598 C72.013507,92.3632616 72.013507,92.4548786 71.9594789,92.6362803 C71.905396,92.8176821 71.8513678,92.9092991 71.7972849,92.9092991 L71.6892287,93 C71.6351457,93 71.5811176,93 71.5811176,93 Z" id="Path" fill="#2C4468" fill-rule="nonzero"></path>
            <path d="M75.528168,91 C75.3591777,91 75.2464984,90.8176821 75.1901302,90.6362803 L75.0211399,89.8181402 C74.9647716,89.5451214 75.0211399,89.1814017 75.1901302,89.0907009 L75.3028095,89 C75.3591777,89 75.4154888,89 75.4154888,89 C75.5845363,89 75.6971584,89.1814017 75.7535266,89.3637197 L75.9788851,90.1818598 C76.0351962,90.4539624 75.9788851,90.8176821 75.8098376,90.908383 L75.6971584,91 C75.6408473,91 75.5845363,91 75.528168,91 Z" id="Path" fill="#2C4468" fill-rule="nonzero"></path>
            <path d="M78.5723911,90 C78.4068958,90 78.2965469,89.8185151 78.2413444,89.6361137 L78.0207027,88.8185151 C77.9655002,88.5453712 78.0207027,88.1814849 78.186198,88.0907424 L78.2965469,88 C78.3516933,88 78.4068958,88 78.4068958,88 C78.5723911,88 78.68274,88.1814849 78.7379424,88.3638863 L78.9586402,89.1814849 C79.0137866,89.3638863 79.0137866,89.4546288 78.9586402,89.6361137 C78.9034377,89.8185151 78.8482913,89.9092576 78.7930888,89.9092576 L78.68274,90 C78.68274,90 78.6275935,90 78.5723911,90 Z" id="Path" fill="#2C4468" fill-rule="nonzero"></path>
            <path d="M83.5845363,89 C83.4154888,89 83.3028095,88.8185151 83.2464984,88.6361137 L83.0211399,87.8175985 C82.9647716,87.5453712 83.0211399,87.1814849 83.1901302,87.0907424 L83.3028095,87 C83.3591777,87 83.4154888,87 83.4154888,87 C83.5845363,87 83.6972155,87.1814849 83.7535266,87.3629698 L83.9788851,88.1814849 C84.0351962,88.4546288 83.9788851,88.8185151 83.8098376,88.9092576 L83.6972155,89 C83.6972155,89 83.6408473,89 83.5845363,89 Z" id="Path" fill="#2C4468" fill-rule="nonzero"></path>
            <path d="M86.4199212,88 C86.1949578,88 85.9699944,87.8114919 85.8955132,87.5277778 L81.0270313,71.9444444 C80.9520942,71.5664763 81.0270313,71.1885081 81.3265519,71.094254 C81.401489,71.094254 81.4763501,71 81.5512873,71 C81.7759467,71 82.0006821,71.1885081 82.0755432,71.4722222 L86.9435691,87.0555556 C87.0188103,87.2450157 87.0188103,87.4335237 86.9435691,87.5277778 C86.869088,87.7172379 86.7938469,87.8114919 86.6441246,87.905746 C86.5696435,87.905746 86.4944023,88 86.4199212,88 Z" id="Path" fill="#2C4468" fill-rule="nonzero"></path>
            <path d="M125.834799,40.3463015 L66.5349736,10.6444601 C64.8378489,9.8366446 62.841205,9.73521075 61.2439807,10.6444601 L49.2642988,16.403344 C41.7769522,20.0403415 37.6838548,28.3241059 39.3809795,36.6078702 L42.176281,49.7421829 C42.5756098,51.5606816 43.7735961,53.1763127 45.4707208,53.985042 L104.770273,83.5854496 C104.870265,83.5854496 104.870265,83.6868834 104.969347,83.6868834 C106.766463,84.4946989 108.962635,83.6868834 109.861647,81.8683847 L119.844413,61.359557 L127.631006,45.39789 C128.530018,43.5793912 127.730997,41.2555509 125.834799,40.3463015 Z M53.3573053,30.9504201 C52.2592193,33.1737404 49.5637273,34.0829898 47.3674644,32.9717865 C45.1712015,31.8596695 44.2727344,29.1319214 45.3708204,26.9095149 C46.4689973,24.6871084 49.1643985,23.777859 51.3606614,24.8890623 C53.5570152,26.1016994 54.4554822,28.7280136 53.3573053,30.9504201 Z" id="Shape" fill="url(#linearGradient-5)" fill-rule="nonzero"></path>
            <path d="M52.5798157,29.789573 C51.5954051,31.7591067 49.1790356,32.5645675 47.2100514,31.5793959 C45.2411487,30.5950338 44.4356922,28.1786515 45.4201843,26.2099273 C46.4045949,24.241203 48.8210459,23.4357423 50.7899486,24.4201044 C52.7588513,25.4943219 53.5643078,27.8208488 52.5798157,29.789573 Z" id="Path" stroke="#2C466C" stroke-width="1.5" fill="#FFFFFF" fill-rule="nonzero"></path>
            <path d="M120,61.4537509 L110.022411,81.8768142 C109.124773,83.6877889 107.02877,84.4931722 105.133555,83.6877889 L75,53.5054828 L76.7960024,51.9966405 L88.5699576,49.6824149 L81.2860993,42.7406483 L81.9844942,40.7285552 L83.2816172,36 L88.9688068,37.4078281 L90.4660812,38.0120931 L97.9488189,45.5572146 L102.339794,43.5451215 L120,61.4537509 Z" id="Path" fill="url(#linearGradient-6)" fill-rule="nonzero"></path>
            <g id="Group" opacity="0.4" transform="translate(44.000000, 14.000000)" stroke="#BFCFFF" stroke-linecap="round" stroke-linejoin="round" stroke-width="1.4">
                <line x1="9.58569655" y1="5.64626087" x2="10.8821138" y2="5.04091304" id="Path"></line>
                <path d="M14.871069,3.02217391 L20.2561448,0.498521739 C20.4556425,0.397173913 20.555346,0.397173913 20.7548437,0.397173913 C20.9542506,0.397173913 21.053954,0.397173913 21.2534517,0.498521739 L76.6999195,28.2568696 C78.1963793,28.9635652 78.7947816,30.8818696 78.0964943,32.3956957 L64.0354023,61.0634348 C63.3371149,62.5772609 61.442023,63.1826087 59.9464713,62.475913 L4.49964023,34.6162174 C4.20052989,34.4144348 4.00103218,34.2126522 3.90132874,33.809087 L2.2060069,25.935913" id="Path" stroke-dasharray="3.02"></path>
                <line x1="1.50790115" y1="24.3207391" x2="1.2087908" y2="22.806" id="Path"></line>
            </g>
            <path d="M82.0898789,32.3451902 C80.5168539,32.9035801 79.2808399,33.9082779 78.6067156,35.3592837 C77.9325913,36.8112992 77.8202542,38.3733771 78.2696023,39.9364648 C78.8314919,41.4995525 79.8427296,42.6153224 81.3034175,43.3968663 C82.7641055,44.067338 84.3368235,44.1784101 85.9103601,43.7321021 C87.4828735,43.1737123 88.6072666,42.1690144 89.3930118,40.7180086 C90.0672384,39.2670028 90.1797801,37.7039152 89.7306367,36.1408275 C88.6072666,32.9035801 85.1235918,31.2294203 82.0898789,32.3451902 Z M86.4720451,37.1455253 C86.9211885,38.485459 86.2469618,40.0485467 84.78699,40.4948547 C83.4382298,40.9411626 81.8652049,40.2717007 81.4157545,38.8206949 C80.9663042,37.4807612 81.6404285,35.9176735 83.1011165,35.4713655 C84.4493652,35.0250576 86.0229017,35.6945195 86.4720451,37.1455253 Z" id="Shape" fill="url(#linearGradient-7)" fill-rule="nonzero"></path>
            <path d="M76.3175496,49.9637957 C75.8142936,50.1826731 75.4116705,50.5114843 75.2104047,51.0581825 C75.0090473,51.6058711 74.9084144,52.1535596 75.1097718,52.5913143 C75.4116705,53.6866915 76.5189071,54.2333897 77.5254191,53.9055688 L101.682533,45.0365793 C102.185698,44.817702 102.588046,44.4888907 102.789678,43.9412022 C102.991311,43.394504 103.09121,42.8468154 102.890494,42.4090607 C102.588046,41.3136835 101.480901,40.765995 100.474572,41.0948062 L76.3175496,49.9637957 Z" id="Path" fill="url(#linearGradient-8)" fill-rule="nonzero"></path>
            <path d="M86.6069701,55.3140779 C85.9327636,56.7689102 85.8202253,58.3361199 86.2693553,59.9023172 C87.2811766,63.0367367 90.7637242,64.7153114 93.9096802,63.7079641 C95.3706315,63.1481017 96.6065062,62.1407544 97.3932509,60.6859221 C98.0674574,59.2310898 98.1799957,57.6638801 97.7298427,56.0976828 C96.7190444,52.9632633 93.2364968,51.2846886 90.0895177,52.2920359 C88.5170513,52.8508859 87.2811766,53.9706107 86.6069701,55.3140779 Z M94.4723715,57.2163951 C94.9215015,58.5598624 94.247295,60.1270721 92.7863437,60.5745571 C91.4379307,61.022042 89.8654643,60.3508146 89.4163343,58.8949699 C88.9661813,57.5525151 89.6403878,55.9853053 91.101339,55.5378204 C92.449752,55.0903354 94.0222185,55.7615629 94.4723715,57.2163951 Z" id="Shape" fill="url(#linearGradient-9)" fill-rule="nonzero"></path>
            <path d="M47.9251199,30 C47.825314,30 47.7255081,30 47.6257021,29.8998048 C46.0284437,29.3013416 43.3330472,28.2037077 38.5413626,26.3072201 C27.360735,21.9166845 19.1749216,21.9166845 14.2834311,22.015977 C13.2850991,22.015977 12.3866639,22.015977 11.5880347,22.015977 C3.30241531,21.6170015 0.207758799,16.2281245 0.00810148778,11.7373936 C-0.191546734,6.64819956 3.30241531,0.760151852 10.090673,0.0614934233 C15.0819694,-0.536969804 18.3762923,3.35439516 21.0715979,6.44871182 C22.6688564,8.3442967 23.7669943,9.74161356 24.6654295,10.8392475 C27.360735,14.2323444 28.1593643,15.2297831 34.6481133,18.8223678 C37.4433156,20.3198799 40.5379358,21.6170015 43.53275,22.9141232 C45.5293231,23.7129768 47.6256112,24.611123 49.5223784,25.5092691 C49.921693,25.7087569 50.1213049,26.2070249 49.921693,26.6069031 C49.7219903,27.0058785 49.2228697,27.2053663 48.8235551,27.0058785 C46.9268788,26.1077324 44.8304998,25.2095862 42.9338235,24.4107326 C39.9390093,23.1136109 36.7444923,21.8164893 33.849484,20.3198799 C27.0612263,16.6271 26.0629852,15.4301735 23.3676797,11.9368814 C22.4692445,10.8392475 21.3711066,9.44193062 19.8737449,7.64563827 C17.2782453,4.65241948 14.2834311,1.25932254 10.1904789,1.75849322 C4.40046235,2.25676125 1.5055086,7.24666279 1.6053418,11.6381011 C1.70516591,15.6296613 4.50035918,20.0201969 11.6878406,20.3198799 C12.3866639,20.3198799 13.2850991,20.3198799 14.2834311,20.3198799 C19.2747275,20.3198799 27.6602437,20.2196847 39.240186,24.8106107 C44.0318705,26.7061956 46.7271761,27.8038295 48.3244346,28.4031954 C48.7237492,28.6026831 48.9234519,29.0016586 48.7237492,29.4006341 C48.5241373,29.7996096 48.2246286,30 47.9251199,30 Z" id="Path" fill="url(#linearGradient-10)" fill-rule="nonzero"></path>
        </g>
    </g>
</svg>