<?xml version="1.0" encoding="UTF-8"?>
<svg width="128px" height="128px" viewBox="0 0 128 128" version="1.1" xmlns="http://www.w3.org/2000/svg" xmlns:xlink="http://www.w3.org/1999/xlink">
    <title>Expert</title>
    <defs>
        <linearGradient x1="42.0051284%" y1="57.0269015%" x2="58.3093049%" y2="43.236731%" id="linearGradient-1">
            <stop stop-color="#FF66A9" offset="0%"></stop>
            <stop stop-color="#F53689" offset="100%"></stop>
        </linearGradient>
        <linearGradient x1="40.7489615%" y1="97.9376378%" x2="57.3212718%" y2="33.2111918%" id="linearGradient-2">
            <stop stop-color="#FF66A9" offset="0%"></stop>
            <stop stop-color="#F53689" offset="100%"></stop>
        </linearGradient>
        <linearGradient x1="50.6012474%" y1="52.808195%" x2="60.3363546%" y2="98.6400565%" id="linearGradient-3">
            <stop stop-color="#606673" stop-opacity="0" offset="0.289017%"></stop>
            <stop stop-color="#373C47" offset="100%"></stop>
        </linearGradient>
        <linearGradient x1="0.0973159899%" y1="50.1859371%" x2="99.9145778%" y2="50.1859371%" id="linearGradient-4">
            <stop stop-color="#FF66A9" offset="0%"></stop>
            <stop stop-color="#F53689" offset="100%"></stop>
        </linearGradient>
        <linearGradient x1="49.5606139%" y1="1.66092134%" x2="50.623714%" y2="80.9464118%" id="linearGradient-5">
            <stop stop-color="#606673" stop-opacity="0" offset="0.289017%"></stop>
            <stop stop-color="#373C47" offset="100%"></stop>
        </linearGradient>
        <linearGradient x1="48.5719439%" y1="42.9130967%" x2="43.8241726%" y2="5.21419829%" id="linearGradient-6">
            <stop stop-color="#FF66A9" offset="0%"></stop>
            <stop stop-color="#F53689" offset="100%"></stop>
        </linearGradient>
        <linearGradient x1="49.5353636%" y1="1.6028147%" x2="50.63498%" y2="80.8053167%" id="linearGradient-7">
            <stop stop-color="#606673" stop-opacity="0" offset="0.289017%"></stop>
            <stop stop-color="#373C47" offset="100%"></stop>
        </linearGradient>
        <linearGradient x1="48.7933563%" y1="2.16655383%" x2="50.7443444%" y2="81.6519973%" id="linearGradient-8">
            <stop stop-color="#606673" stop-opacity="0" offset="0.289017%"></stop>
            <stop stop-color="#373C47" offset="100%"></stop>
        </linearGradient>
        <linearGradient x1="0.216326693%" y1="49.5238095%" x2="100.001761%" y2="49.5238095%" id="linearGradient-9">
            <stop stop-color="#FF66A9" offset="0%"></stop>
            <stop stop-color="#F53689" offset="100%"></stop>
        </linearGradient>
        <linearGradient x1="70.5143195%" y1="18.7960504%" x2="34.8563033%" y2="70.6781341%" id="linearGradient-10">
            <stop stop-color="#FF66A9" stop-opacity="0" offset="0%"></stop>
            <stop stop-color="#FF8FC0" offset="49.64%"></stop>
            <stop stop-color="#F53689" stop-opacity="0" offset="100%"></stop>
        </linearGradient>
        <linearGradient x1="57.8739222%" y1="84.7376789%" x2="35.8151577%" y2="3.12665607%" id="linearGradient-11">
            <stop stop-color="#FF66A9" offset="0%"></stop>
            <stop stop-color="#F53689" offset="100%"></stop>
        </linearGradient>
        <linearGradient x1="45.8890239%" y1="-1.20481928%" x2="51.4783313%" y2="102.008032%" id="linearGradient-12">
            <stop stop-color="#83A6FF" offset="0%"></stop>
            <stop stop-color="#5A78FF" offset="100%"></stop>
        </linearGradient>
        <linearGradient x1="69.4730938%" y1="36.4486358%" x2="44.1217711%" y2="64.9619151%" id="linearGradient-13">
            <stop stop-color="#FF66A9" offset="0%"></stop>
            <stop stop-color="#F53689" offset="100%"></stop>
        </linearGradient>
        <linearGradient x1="21.8157881%" y1="96.5736192%" x2="78.9076699%" y2="0.691987201%" id="linearGradient-14">
            <stop stop-color="#FF66A9" offset="0%"></stop>
            <stop stop-color="#F53689" offset="100%"></stop>
        </linearGradient>
        <linearGradient x1="27.8362404%" y1="69.0227286%" x2="76.7911201%" y2="36.2238115%" id="linearGradient-15">
            <stop stop-color="#FF66A9" offset="0%"></stop>
            <stop stop-color="#F53689" offset="100%"></stop>
        </linearGradient>
        <linearGradient x1="-83.7684078%" y1="-157.965559%" x2="-31.7198299%" y2="-73.358862%" id="linearGradient-16">
            <stop stop-color="#FF66A9" offset="0%"></stop>
            <stop stop-color="#F53689" offset="100%"></stop>
        </linearGradient>
        <linearGradient x1="42.7985941%" y1="97.9249012%" x2="57.0113268%" y2="34.7826087%" id="linearGradient-17">
            <stop stop-color="#FF66A9" offset="0%"></stop>
            <stop stop-color="#F53689" offset="100%"></stop>
        </linearGradient>
        <linearGradient x1="31.1307358%" y1="83.4728033%" x2="70.671875%" y2="22.5941423%" id="linearGradient-18">
            <stop stop-color="#FF66A9" offset="0%"></stop>
            <stop stop-color="#F53689" offset="100%"></stop>
        </linearGradient>
        <linearGradient x1="20.5438413%" y1="73.4530722%" x2="78.8814554%" y2="28.1616693%" id="linearGradient-19">
            <stop stop-color="#FF66A9" offset="0%"></stop>
            <stop stop-color="#F53689" offset="100%"></stop>
        </linearGradient>
        <linearGradient x1="20.0631803%" y1="72.6220372%" x2="78.3903452%" y2="27.3306344%" id="linearGradient-20">
            <stop stop-color="#FF66A9" offset="0%"></stop>
            <stop stop-color="#F53689" offset="100%"></stop>
        </linearGradient>
        <linearGradient x1="20.0617284%" y1="66.6021733%" x2="77.6877572%" y2="32.6345083%" id="linearGradient-21">
            <stop stop-color="#FF66A9" offset="0%"></stop>
            <stop stop-color="#F53689" offset="100%"></stop>
        </linearGradient>
    </defs>
    <g id="Expert" stroke="none" stroke-width="1" fill="none" fill-rule="evenodd">
        <g id="40" transform="translate(5.000000, 10.000000)">
            <path d="M83.9105183,41.0186296 L83.3172696,41.2256945 C83.1424173,41.2588248 82.9871914,41.3747812 82.8123391,41.4161942 C82.0647565,41.7392154 81.567855,42.3521274 81.2850582,43.0892784 C80.9540879,44.0169291 81.1851427,44.9942754 81.8158597,45.7231438 C82.0870591,46.0958606 82.2021404,46.5845337 82.0371013,47.0483591 C81.93897,47.4127933 81.6472522,47.7275319 81.317174,47.8766186 C81.2297478,47.8931838 81.1423217,47.909749 81.0736297,48.0091402 C80.8987775,48.0505531 80.7435515,48.1665095 80.5686993,48.1996399 C79.8211167,48.5226611 79.3242151,49.1355731 79.0414184,49.8810067 C78.7104481,50.8086574 78.9415028,51.7860037 79.5722199,52.5148721 C79.8434193,52.8875889 79.9585006,53.376262 79.7934615,53.8318048 C79.6953301,54.196239 79.4036123,54.5109776 79.0735341,54.6683469 C78.986108,54.6849121 78.8986819,54.7014773 78.8299899,54.8008684 C78.6551377,54.8339988 78.4999117,54.9582378 78.3250594,54.9913681 C77.5765847,55.3143894 77.0805753,55.9273014 76.7977786,56.672735 C76.4668082,57.5921031 76.697863,58.5694494 77.3276879,59.2983178 C77.5997794,59.6710346 77.7148608,60.1597077 77.5498216,60.6235331 C77.4516903,60.9879673 77.1599725,61.3027059 76.8298943,61.4517926 C76.7424681,61.4766404 76.655042,61.4932056 76.5863501,61.5925967 C76.4989239,61.6091619 76.4989239,61.6091619 76.4114978,61.6257271 C76.0814196,61.7830964 75.8967542,62.1558132 76.0609012,62.4705519 C76.1572484,62.876399 76.671992,63.1165943 77.0894963,62.9426598 C77.2643486,62.9095294 77.4195746,62.7935731 77.5944268,62.7521601 C78.3429015,62.4291389 78.8389109,61.8162268 79.1217077,61.0707932 C79.4535701,60.1514251 79.2216233,59.1740789 78.5917983,58.4452105 C78.3205989,58.0724937 78.2046255,57.5838205 78.3705567,57.1199952 C78.467796,56.755561 78.7595137,56.4408224 79.0904841,56.2917356 C79.1779102,56.2751704 79.2653363,56.2503227 79.3331362,56.1509315 C79.5079884,56.1178011 79.6632144,56.0018448 79.8380667,55.9687144 C80.5865413,55.6456932 81.0825508,55.0244985 81.3653475,54.2873475 C81.69721,53.3596968 81.4652631,52.3823506 80.8354382,51.6534822 C80.5642388,51.2807654 80.4482653,50.7920922 80.6141965,50.3282669 C80.7114358,49.9721153 81.0031536,49.6490941 81.3341239,49.5 C81.42155,49.4834422 81.5089762,49.466877 81.576776,49.3674858 C81.7516283,49.3260728 81.9068542,49.2101165 82.0817065,49.1769861 C82.8301812,48.8539649 83.3261906,48.2410528 83.6089874,47.4956192 C83.9408498,46.5762511 83.7089029,45.5906223 83.079078,44.8700365 C82.8078786,44.4973197 82.6919052,44.0003639 82.8578364,43.5448212 C82.9550756,43.180387 83.2467934,42.8656484 83.5777638,42.7082791 C83.6651899,42.6917139 83.752616,42.6751487 83.8204159,42.5757575 L84.4127725,42.3686926 C84.5001986,42.3521274 84.5001986,42.3521274 84.5876247,42.3355623 C84.918595,42.1781929 85.1032604,41.8054761 84.9391134,41.4907375 C84.7740743,41.1842815 84.3476489,40.927521 83.9105183,41.0186296 Z" id="Path" fill="#6097FD" fill-rule="nonzero"></path>
            <path d="M37.6074742,54.5776081 C38.0266054,54.365564 38.1318124,53.8396947 37.8170398,53.4156064 C37.7126812,53.2120441 37.398757,53 37.0839843,53 C36.8744187,53 36.7700601,53 36.6648531,53.1017812 C35.6178734,53.8396947 35.3039492,55.2052587 35.827439,56.2654792 C35.9317976,56.4690416 35.9317976,56.7913486 35.827439,57.0033927 C35.7230804,57.206955 35.5135148,57.4189992 35.1987422,57.4189992 C34.3613281,57.5292621 33.7326312,58.0551315 33.3143484,58.682782 C32.8952172,59.3189143 32.8952172,60.2603902 33.3143484,60.9983036 C33.418707,61.2103478 33.418707,61.524173 33.3143484,61.7362171 C33.2091414,61.9482612 33.2091414,62.1603053 33.2091414,62.3723494 C33.2091414,62.5843936 33.418707,62.7879559 33.6282726,62.8982188 C33.7326312,63 33.8378383,63 34.0474039,63 C34.3613281,63 34.6752523,62.7879559 34.7804594,62.5843936 C35.0943836,61.8464801 35.0943836,60.9983036 34.7804594,60.3706531 C34.6752523,60.158609 34.6752523,59.8447837 34.7804594,59.6327396 C34.8848179,59.4206955 35.0943836,59.2086514 35.4083078,59.2086514 C36.2465703,59.1068702 36.8744187,58.5810008 37.2935499,57.9448685 C37.7126812,57.206955 37.7126812,56.3672604 37.2935499,55.6293469 C37.1891914,55.2052587 37.398757,54.7896522 37.6074742,54.5776081 Z" id="Path" fill="#6097FD" fill-rule="nonzero"></path>
            <path d="M51.7074192,38.3591473 C51.4934758,38.0420513 51.0655889,37.9306392 50.7451068,38.0420513 C50.6385682,38.0420513 50.5311634,38.1448932 50.5311634,38.1448932 C49.6762558,38.6762433 49.1409641,39.6361015 49.0344255,40.5959597 C48.9278869,41.5472477 49.2483689,42.6185181 49.8893331,43.355552 C50.31722,43.7840601 50.4246248,44.3154102 50.31722,44.8467603 C50.2106813,45.3781104 49.7827945,45.8066185 49.2483689,46.0208725 C48.1786518,46.4493807 47.4302828,47.2978268 47.1098007,48.4633689 C46.8958573,49.5346392 47.1098007,50.7001813 47.8581697,51.5571975 C48.2860566,51.9771355 48.3925952,52.5084855 48.2860566,53.0398356 C48.1786518,53.5711857 47.7516311,53.9996938 47.2172055,54.2139479 C46.1474883,54.642456 45.3991194,55.4909021 45.0786373,56.6650143 C44.8646939,57.7277145 45.0786373,58.8932566 45.8270063,59.7502728 C46.0409497,59.9559567 46.3614318,60.0673688 46.6819139,59.9559567 C46.7893187,59.9559567 46.8958573,59.8531148 47.0032621,59.7502728 C47.3237442,59.4246066 47.4302828,58.8932566 47.1098007,58.4733186 C46.6819139,58.0448105 46.5753752,57.5134604 46.6819139,56.9821103 C46.7893187,56.4507603 47.2172055,56.0222521 47.7516311,55.8079981 C48.8204821,55.3880601 49.568851,54.5310439 49.8893331,53.3655018 C50.1032765,52.2942315 49.8893331,51.1286894 49.1409641,50.2802433 C48.7139434,49.8517352 48.6065386,49.3203851 48.7139434,48.789035 C48.8204821,48.257685 49.2483689,47.8291768 49.7827945,47.6149228 C50.8516455,47.1864146 51.6000144,46.3379686 51.9213627,45.1724265 C52.1353061,44.1011562 51.9213627,42.9356141 51.1729937,42.0785978 C50.8516455,41.7615018 50.6385682,41.2301517 50.7451068,40.6988017 C50.8516455,40.1674516 51.0655889,39.7389435 51.4934758,39.5246894 C51.7074192,39.4218475 51.8139579,39.2075934 51.9213627,38.9933393 C51.8139579,38.7876554 51.8139579,38.5734014 51.7074192,38.3591473 Z" id="Path" fill="url(#linearGradient-1)" fill-rule="nonzero"></path>
            <path d="M73.8000968,44.448731 C73.5791326,44.135675 73.1372044,43.9241507 72.6952761,44.0256824 C72.5852413,44.0256824 72.4743119,44.135675 72.4743119,44.135675 C70.7074934,45.1848357 70.1555304,47.1816254 71.0393869,48.9668908 C71.3703858,49.4914711 71.2603511,50.1175832 70.9284576,50.6421635 C70.7074934,51.0652122 70.2664597,51.3782682 69.8245315,51.4882608 C69.7144967,51.4882608 69.6035673,51.4882608 69.4935326,51.5897925 C69.2725684,51.5897925 69.0516043,51.6997852 68.8306401,51.6997852 C67.8367488,52.0128412 66.9537869,52.5374215 66.5118586,53.4850505 C65.8489662,54.5342112 65.8489662,55.8964279 66.4018238,56.9540496 C66.6218934,57.4786299 66.6218934,58.104742 66.2908945,58.6293223 C66.1808597,58.8408467 66.1808597,59.1539027 66.1808597,59.365427 C66.2908945,59.5769513 66.4018238,59.7884757 66.6218934,59.8900073 C66.8428575,60 67.174751,60 67.3948205,60 C67.6157847,59.8900073 67.8367488,59.7884757 68.057713,59.5769513 C68.7206054,58.5277906 68.7206054,57.2671056 68.1677477,56.1079523 C67.8367488,55.5833719 67.9476782,54.9572599 68.2786771,54.4326796 C68.4996412,54.0096309 68.9415695,53.6965749 69.3826032,53.5865822 C69.4935326,53.5865822 69.6035673,53.5865822 69.7144967,53.4850505 C69.9345662,53.4850505 70.1555304,53.3750579 70.3764945,53.3750579 C71.3703858,53.0620019 72.2542424,52.5374215 72.8062054,51.5897925 C73.4682033,50.5406318 73.4682033,49.1784151 72.9162402,48.1207934 C72.4743119,47.2831571 72.8062054,46.2339964 73.6891674,45.8109477 C74.0210609,45.4978917 74.1310957,44.8717797 73.8000968,44.448731 Z" id="Path" fill="url(#linearGradient-2)" fill-rule="nonzero"></path>
            <path d="M59.2881331,46.4677914 C59.6108305,46.1556748 59.6108305,45.5230061 59.1811472,45.2108896 C58.9663056,45 58.644478,45 58.3217807,45 C58.1078089,45 57.9999531,45.101227 57.8929672,45.3121166 C57.0336007,46.2569018 57.0336007,47.8259202 57.9999531,48.7707055 C58.2147948,48.9815951 58.2147948,49.1924847 58.2147948,49.5046012 C58.1078089,49.8167178 57.9999531,50.0276074 57.6781256,50.1288344 C56.9266148,50.4493865 56.2820899,51.1832822 56.0672483,51.9171779 C55.8524066,52.7523006 56.175104,53.5874233 56.7117732,54.220092 C56.9266148,54.4309816 56.9266148,54.6334356 56.9266148,54.9539877 C56.9266148,55.1564417 56.9266148,55.3673313 57.0336007,55.5782209 C57.1414564,55.7891104 57.3562981,55.8903374 57.5702699,56 C57.6781256,56 57.8929672,56 57.9999531,56 C58.3217807,55.8903374 58.5366223,55.6878834 58.644478,55.3673313 C58.8593197,54.5322086 58.5366223,53.6970859 57.9999531,53.0644172 C57.7851115,52.8535276 57.7851115,52.642638 57.7851115,52.3305215 C57.8929672,52.0184049 57.9999531,51.8075153 58.3217807,51.7062883 C59.0741613,51.3857362 59.7178164,50.6602761 59.932658,49.9263804 C60.1474997,49.0828221 59.8256721,48.2476994 59.2881331,47.6150307 C58.9663056,47.2016871 59.0741613,46.779908 59.2881331,46.4677914 Z" id="Path" fill="#6097FD" fill-rule="nonzero"></path>
            <path d="M69,61 L69,109 L26.6431386,109 C24.5614656,109 23,107.321441 23,105.320735 L23,61 L69,61 Z" id="Path" fill="#E9EDF5" fill-rule="nonzero"></path>
            <path d="M89,61 L89,105.320735 C89,107.423172 87.3427084,109 85.3731005,109 L69,109 L69,61 L89,61 Z" id="Path" fill="#DAE1ED" fill-rule="nonzero"></path>
            <path d="M89,61 L89,105.320735 C89,107.423172 87.3427084,109 85.3731005,109 L69,109 L69,61 L89,61 Z" id="Path" fill="url(#linearGradient-3)" fill-rule="nonzero" opacity="0.2"></path>
            <path d="M40,74.9213246 C37.574865,74.4144391 33.9896971,78.06892 32.408533,79.483294 C31.2485001,80.5052405 29.983398,81.6171183 28.8233651,82.7371717 C27.7692557,83.7509427 26.8202156,85.0672098 25.3441207,85.6803778 C23.5511097,86.3916525 21.6530294,85.7784846 19.8608725,85.1734923 C19.4388871,85.0672098 19.1228251,84.8628205 18.8067631,84.7647137 C17.3298141,84.2578282 15.9596427,83.6446603 14.5886171,82.8352786 C13.2184457,82.0258969 10.89838,80.5052405 11.0034492,78.6739123 C11.1093727,76.8507597 14.2725551,75.2238208 14.2725551,75.2238208 L21.8640221,77.8645306 C21.6530294,77.8645306 21.0209054,78.2651337 20.8099127,78.2651337 C20.3879272,78.469523 19.9659418,78.6739123 19.6498798,79.0826909 C19.4388871,79.483294 19.3338178,79.9901794 19.4388871,80.3989581 C19.5448106,80.6033474 19.6498798,80.8077367 19.7549491,80.9058435 C19.8608725,80.9058435 19.9659418,80.9058435 20.0718653,80.9058435 C20.9149819,80.8077367 22.3910768,79.3851871 22.8130623,78.9764085 C24.7111426,77.455752 27.3472703,75.3219277 30.0884673,74.0056605 C34.6226753,71.8718362 35.9928467,73.5968819 40,74.9213246 Z" id="Path" fill="url(#linearGradient-4)" fill-rule="nonzero"></path>
            <polyline id="Path" fill="url(#linearGradient-5)" fill-rule="nonzero" opacity="0.5" points="42.8567708 98.373864 42 73.3707302 50.4644097 72 51 99 50.0355903 98.5853964 49.3932292 93.4324663"></polyline>
            <path d="M50.8975621,109 L42.7758177,109 C42.7758177,103.423501 42.7758177,97.7388005 42.7758177,92.153978 C42.7758177,91.6379437 42.7758177,91.2301102 42.7758177,90.7057528 C42.7758177,88.6416157 42.6733798,86.4692778 42.2619624,84.4051408 C41.7481072,81.4088127 41.4399606,77.5884945 40,75 C40.3089794,75.1082007 40.5146881,75.2080783 40.8228346,75.3079559 C43.804361,76.1402693 47.8135978,77.5884945 49.3551635,80.4766218 C50.0747274,81.8249694 50.1779982,83.5811506 50.2804361,85.1292534 C50.382874,86.3694002 50.4861448,87.5096695 50.5885827,88.7498164 C50.5885827,88.849694 50.5885827,89.0577723 50.5885827,89.1576499 C50.7942913,92.2621787 50.8975621,95.4665851 51,98.5627907 C51,99.4949816 51,109 50.8975621,109 Z" id="Path" fill="url(#linearGradient-6)" fill-rule="nonzero"></path>
            <polygon id="Path" fill="url(#linearGradient-7)" fill-rule="nonzero" opacity="0.4" points="75 89.7771697 75 75.4022674 82 75 81.3543562 96 78.8773526 88.7591869"></polygon>
            <polygon id="Path" fill="url(#linearGradient-8)" fill-rule="nonzero" opacity="0.2" points="82 97 81.5689892 109 75 109 75 97.3981043"></polygon>
            <path d="M117.665996,80.0327526 C117.665996,80.0327526 119.753181,85.225784 113.492474,86.7811847 C110.257296,87.6090592 104.830956,90.0006969 101.596623,88.9637631 C97.6310581,87.71777 95.7535223,83.8710801 93.5615141,80.133101 C92.3095418,78.0592334 90.9535907,76.0857143 88.6576036,75.6675958 C87.927216,75.5672474 87.3008072,75.6675958 86.7792225,75.8766551 C84.9008414,76.7045296 83.7536932,79.0961672 83.0233056,80.969338 C82.084115,83.143554 81.561685,85.5351916 81.561685,87.9184669 C81.6665091,91.7651568 82.5008755,95.5031359 82.6056997,99.3414634 C82.6056997,101.423693 82.6056997,103.497561 82.3968967,105.47108 C82.2929179,106.508014 82.2929179,107.963066 81.6665091,108.899652 C81.6665091,108.899652 81.6665091,108.899652 81.561685,109 L75.0930205,109 C76.0313657,105.889199 77.3881621,101.214634 75.6146052,93.4292683 C74.4666116,88.3365854 74.6754146,80.969338 78.4313315,76.8132404 C80.4145368,74.5303136 83.7536932,73.384669 86.7792225,73.0752613 C87.8232372,72.9749129 88.8664066,72.9749129 89.700773,73.0752613 C94.9183105,73.5937282 97.9446852,76.7045296 100.031024,80.133101 C102.118208,83.461324 105.039758,89.7916376 107.544548,88.7547038 C110.048493,87.71777 111.092508,81.1700348 111.092508,81.1700348 L117.665996,80.0327526 Z" id="Path" fill="url(#linearGradient-9)" fill-rule="nonzero"></path>
            <path d="M19.8645291,78.8783895 C19.6517604,79.2810189 19.5445112,79.7904684 19.6517604,80.2013147 C19.7581447,80.4067379 19.8645291,80.6121611 19.9717783,80.7107642 C20.0781627,80.7107642 20.1854119,80.7107642 20.2917962,80.7107642 L19.9717783,85 C19.5445112,84.89318 19.2244932,84.6877568 18.9044753,84.5891537 C17.4090402,84.0797042 16.0217193,83.4634347 14.6335335,82.6499589 C13.2462126,81.8364832 10.897108,80.3081348 11.0034924,78.4675431 C11.1107416,76.6269515 14.3135156,75 14.3135156,75 L22,77.6540674 C21.7863664,77.6540674 21.1463306,78.0566968 20.932697,78.0566968 C20.5054298,78.1635168 20.0781627,78.36894 19.8645291,78.8783895 Z" id="Path" fill="url(#linearGradient-10)" fill-rule="nonzero"></path>
            <path d="M51,88.9989401 L42.8560411,91 C42.8560411,88.8971913 42.7497858,86.6841547 42.327335,84.5813461 C41.7977721,81.5204028 41.4807198,77.6285109 40,75 C40.3170523,75.1017488 40.5287061,75.2034976 40.8466153,75.3137255 C43.9134533,76.1531532 48.0385604,77.6285109 49.6255356,80.5792263 C50.3658955,81.9443561 50.4712939,83.7334393 50.5775493,85.3105458 C50.7883462,86.5739269 50.8946015,87.7355591 51,88.9989401 Z" id="Path" fill="url(#linearGradient-11)" fill-rule="nonzero"></path>
            <path d="M42.000405,43 C42.5520454,43 43,42.5502008 43,42.0040161 C43,41.4497992 42.5520454,41 42.000405,41 C41.4479546,41 41,41.4497992 41,42.0040161 C41,42.5502008 41.4479546,43 42.000405,43 Z" id="Path" fill="url(#linearGradient-12)" fill-rule="nonzero"></path>
            <polygon id="Path" fill="#CED7E8" fill-rule="nonzero" points="43.3294253 42.8213196 10.1588507 72 0 65.0687955 18.5549975 41.1392346 27.5734233 23.9295609 41.9815742 0 51 5.66330124"></polygon>
            <polygon id="Path" fill="#E9EDF5" fill-rule="nonzero" points="42 0 33.2893121 36.375682 0 65 16.0737733 28.1008054"></polygon>
            <polygon id="Path" fill="#DAE1ED" fill-rule="nonzero" points="43.2105463 43 33 36.5661271 36.5783389 21.6018555 38.4732553 13.6995657 41.841806 0 51 5.68693249 47.9469844 19.9212396 46.4733501 27.3991315"></polygon>
            <polygon id="Path" fill="url(#linearGradient-13)" fill-rule="nonzero" points="46.546225 27.3759521 37.0966878 21.6060936 36.7845636 21.8019587 24.4274764 29 21 26.9760609 38.4461409 14 38.6539432 14.2040261 48 20.1860718"></polygon>
            <path d="M22.8959113,20.7717502 L25.420285,15.4965179 L28.3656718,9.8050435 C28.6818577,9.16793815 29.5230315,8.85363285 30.1545511,9.0660013 L34.9936443,10.7564542 C35.8348181,11.0707595 36.2558312,11.9117385 35.8348181,12.7527176 L34.9936443,14.8679073 C34.8879649,15.0802758 34.6774584,15.3945811 34.4678041,15.4965179 L24.6839383,22.4622031 C24.4734318,22.5641399 24.2629253,22.7765084 24.1580981,23.0908137 L20.7916983,30.8974778 C20.6868712,30.9994147 20.6868712,31.1098463 20.5811918,31.2117832 C19.9505245,31.9508254 16.8994583,35.6460364 15.3210855,39.1288789 C13.4282314,43.2403321 11.3240184,46.5108062 10.1666587,47.3517853 C9.95615215,47.5641537 9.74564563,47.6660906 9.53599137,47.7765222 C9.00929894,48.0908275 8.27295224,48.0908275 7.85279145,47.6660906 L3.53953841,44.0813112 C3.01369824,43.6565743 2.80319172,42.8155952 3.22335251,42.1869846 C3.75004493,41.3375108 4.48639163,40.1822264 5.64289911,38.9165105 C7.85279145,36.4870154 11.8498586,33.3269729 11.8498586,33.3269729 L19.740018,26.7860247 C19.8448451,26.6755931 20.0553516,26.4717194 20.1601788,26.2593509 L22.8959113,20.7717502 Z" id="Path" fill="url(#linearGradient-14)" fill-rule="nonzero"></path>
            <path d="M22.4130316,23.1678782 C24.5801932,21.654158 27.6762577,17.104859 30.3592908,15.3876817 C33.0431599,13.6705044 38.9259334,11.6522108 41.4024506,12.0509865 C43.9826438,12.3602412 47.4917399,12.6613576 51,15.3876817 C46.9750324,15.9980528 46.9750324,15.9980528 46.9750324,15.9980528 L50.4841286,19.7335237 C50.4841286,19.7335237 45.2209024,16.3968285 40.164192,17.9186871 C35.1066455,19.4324073 31.2881937,21.7518174 28.3986449,23.4689946 C25.5090962,25.1943102 24.2708375,26 24.2708375,26 L22,25.0885125 L22.4130316,23.1678782 Z" id="Path" fill="url(#linearGradient-15)" fill-rule="nonzero"></path>
            <path d="M18.466772,26.3080939 C18.3629206,26.5117767 18.0496779,26.6221049 17.8419752,26.6221049 C13.1517779,26.9361158 11.5880974,26.6221049 9.8167141,26.0959243 C8.04533084,25.5697438 6.16925191,25.1454046 4.81411839,25.8837548 C3.87607893,26.3080939 2.93803946,26.9361158 2.41709406,27.2501268 C2.10469567,27.4622964 2,27.7763073 2,28.0988051 L2.3132427,35.1598085 C2.3132427,35.685989 2.72949244,36 3.25128217,36 L7.31583841,35.685989 C7.41968976,35.685989 7.62823679,35.5756609 7.73208814,35.5756609 L16.382146,29.8895163 C16.4868417,29.8895163 16.4868417,29.7791881 16.5906931,29.7791881 L20.4467023,25.4594156 C20.5513979,25.3575742 20.5513979,25.3575742 20.5513979,25.247246 L23.8864617,18.3984122 C24.0950088,18.0844012 23.9903131,17.6685489 23.7817661,17.4563793 C22.8437266,16.4040182 20.4467023,13.9767983 19.0924131,12.2879285 C18.1543736,11.133726 17.4248812,10.4972173 16.9039358,10.1832063 C16.4868417,9.86919537 15.9658963,9.97103677 15.7573493,10.3953759 L10.5462065,16.8198706 C10.3376595,17.1338816 10.3376595,17.4563793 10.4423552,17.7703903 C10.7547536,18.3984122 11.484246,19.4592601 12.9432309,20.401293 C14.7146141,21.5639822 17.5287325,23.3546934 18.9877174,24.194885 C19.4048115,24.5173827 19.5086628,25.0435632 19.1962644,25.4594156 L18.466772,26.3080939 Z" id="Path" fill="url(#linearGradient-16)" fill-rule="nonzero"></path>
            <polyline id="Path" fill="url(#linearGradient-17)" fill-rule="nonzero" points="29 55.4733202 20.7808789 47.3344862 25.4043946 27 21.7055821 27.7307312 14 53.180336 22.6302852 61"></polyline>
            <path d="M22.8287342,30 L19,26.4686192 C19,26.4686192 20.6410127,22.8284519 21.7344304,22 C23.0467089,23.0376569 24.6877215,25.8493724 26,26.1589958 C25.0155696,28.5439331 23.8131646,29.2719665 23.8131646,29.2719665 L22.8287342,30 Z" id="Path" fill="url(#linearGradient-18)" fill-rule="nonzero"></path>
            <path d="M52.1231072,32.6629708 C52.2259268,32.8707296 52.4324021,33.0784883 52.6388773,32.9704538 C52.741697,32.9704538 52.8453526,32.8707296 52.9481722,32.7710054 L53.8768928,31.0092114 C54.0833681,30.6020043 54.3926629,30.3942455 54.8056134,30.2945213 L56.6630546,29.8790039 C56.8695299,29.7709693 57.0760051,29.571521 56.9723495,29.3637622 C56.9723495,29.2557277 56.8695299,29.1560035 56.7658743,29.0562793 L55.0120887,28.1255202 C54.5991382,27.9177615 54.3926629,27.6102786 54.2898433,27.1947611 L53.8768928,25.3415532 C53.7740732,25.1337945 53.5675979,24.9260358 53.3611227,25.02576 C53.258303,25.02576 53.1546474,25.1337945 53.0518278,25.2335187 L52.1231072,26.9870024 C51.9166319,27.4025198 51.6073371,27.6102786 51.1943866,27.7100028 L49.3369454,28.1255202 C49.1304701,28.2252444 48.9239949,28.4330031 49.0276505,28.6407619 C49.0276505,28.740486 49.1304701,28.8485206 49.2341257,28.9482448 L50.9879113,29.8790039 C51.4008618,30.0867626 51.6073371,30.3942455 51.7101567,30.809763 L52.1231072,32.6629708 Z" id="Path" fill="url(#linearGradient-19)" fill-rule="nonzero"></path>
            <path d="M83.1231072,30.6629708 C83.2259268,30.8707296 83.4324021,31.0784883 83.6388773,30.9704538 C83.741697,30.9704538 83.8453526,30.8707296 83.9481722,30.7710054 L84.8768928,29.0092114 C85.0833681,28.6020043 85.3926629,28.3942455 85.8056134,28.2945213 L87.6630546,27.8790039 C87.8695299,27.7709693 88.0760051,27.571521 87.9723495,27.3637622 C87.9723495,27.2557277 87.8695299,27.1560035 87.7658743,27.0562793 L86.0120887,26.1255202 C85.5991382,25.9177615 85.3926629,25.6102786 85.2898433,25.1947611 L84.8768928,23.3415532 C84.7740732,23.1337945 84.5675979,22.9260358 84.3611227,23.02576 C84.258303,23.02576 84.1546474,23.1337945 84.0518278,23.2335187 L83.1231072,24.9870024 C82.9166319,25.4025198 82.6073371,25.6102786 82.1943866,25.7100028 L80.3369454,26.1255202 C80.1304701,26.2252444 79.9239949,26.4330031 80.0276505,26.6407619 C80.0276505,26.740486 80.1304701,26.8485206 80.2341257,26.9482448 L81.9879113,27.8790039 C82.4008618,28.0867626 82.6073371,28.3942455 82.7101567,28.809763 L83.1231072,30.6629708 Z" id="Path" fill="url(#linearGradient-20)" fill-rule="nonzero"></path>
            <path d="M72.5452939,35.4553441 C72.4357048,35.6749634 72.5452939,35.8945827 72.7635882,36 C72.8722934,36 72.9818825,36 73.0905877,36 L74.617764,35.0248902 C74.9447636,34.8052709 75.3813522,34.8052709 75.7083517,34.9106881 L77.4538224,35.4553441 C77.6721167,35.5695461 77.890411,35.4553441 78,35.2357247 C78,35.1303075 78,35.0248902 78,34.9106881 L77.0181175,33.3821376 C76.7998232,33.057101 76.7998232,32.6178624 76.9085285,32.2928258 L77.4538224,30.5446559 C77.5634114,30.3338214 77.4538224,30.114202 77.2364118,30 C77.1268228,30 77.0181175,30 76.9085285,30 L75.3813522,30.9838946 C75.0543526,31.2035139 74.617764,31.2035139 74.2907645,31.0980966 L72.5452939,30.5446559 C72.3269996,30.4392387 72.1087053,30.658858 72,30.7642753 C72,30.8784773 72,30.9838946 72,31.0980966 L72.9818825,32.6178624 C73.199293,32.9516837 73.199293,33.3821376 73.0905877,33.715959 L72.5452939,35.4553441 Z" id="Path" fill="#6097FD" fill-rule="nonzero"></path>
            <path d="M58.4900715,40.6129542 C58.3923749,40.8025276 58.4900715,41 58.6862589,41 C58.7839555,41 58.8824464,41 58.980143,41 L60.2549643,40.2180095 C60.5488483,40.0205371 60.8435266,40.0205371 61.1374106,40.1232227 L62.6076251,40.5102686 C62.8038125,40.6129542 63,40.5102686 63,40.3127962 C63,40.2180095 63,40.1232227 63,40.0205371 L62.2160445,38.7488152 C62.019857,38.4486572 62.019857,38.1563981 62.1175536,37.864139 L62.5099285,36.3949447 C62.6076251,36.1974724 62.5099285,36 62.3137411,36 C62.2160445,36 62.1175536,36 62.019857,36 L60.7450357,36.7819905 C60.4511517,36.9794629 60.1572677,36.9794629 59.8625894,36.8846761 L58.3923749,36.4897314 C58.1961875,36.3949447 58,36.4897314 58,36.6872038 C58,36.7819905 58,36.8846761 58,36.9794629 L58.7839555,38.2590837 C58.980143,38.5513428 58.980143,38.8436019 58.8824464,39.135861 L58.4900715,40.6129542 Z" id="Path" fill="#6097FD" fill-rule="nonzero"></path>
            <path d="M70.4900715,22.6129542 C70.3923749,22.8025276 70.4900715,23 70.6862589,23 C70.7839555,23 70.8824464,23 70.980143,23 L72.2549643,22.2180095 C72.5488483,22.0205371 72.8435266,22.0205371 73.1374106,22.1232227 L74.6076251,22.5102686 C74.8038125,22.6129542 75,22.5102686 75,22.3127962 C75,22.2180095 75,22.1232227 75,22.0205371 L74.2160445,20.7488152 C74.019857,20.4486572 74.019857,20.1563981 74.1175536,19.864139 L74.5099285,18.3949447 C74.6076251,18.1974724 74.5099285,18 74.3137411,18 C74.2160445,18 74.1175536,18 74.019857,18 L72.7450357,18.7819905 C72.4511517,18.9794629 72.1572677,18.9794629 71.8625894,18.8846761 L70.3923749,18.4897314 C70.1961875,18.3949447 70,18.4897314 70,18.6872038 C70,18.7819905 70,18.8846761 70,18.9794629 L70.7839555,20.2590837 C70.980143,20.5513428 70.980143,20.8436019 70.8824464,21.135861 L70.4900715,22.6129542 Z" id="Path" fill="#6097FD" fill-rule="nonzero"></path>
            <path d="M83.7777778,39.5168831 C83.6670525,39.7116883 83.8885031,39.8987013 84.1108539,40 C84.2224794,40 84.3332047,40 84.4448302,40 L86.2227366,39.0337662 C86.5558128,38.838961 87.0005144,38.7376623 87.4443158,38.838961 L89.444573,39.3220779 C89.6669239,39.4155844 89.8892747,39.2285714 90,39.0337662 C90,38.9324675 90,38.838961 90,38.7376623 L88.8891461,37.1948052 C88.55607,37 88.55607,36.5168831 88.6667953,36.2285714 L89.2222222,34.4831169 C89.3338477,34.2883117 89.1114969,34.0935065 88.8891461,34 C88.7784208,34 88.6667953,34 88.55607,34 L86.7781636,34.9662338 C86.4441872,35.161039 86.0003858,35.2545455 85.5556842,35.161039 L83.555427,34.6779221 C83.3330761,34.5844156 83.1107253,34.7714286 83,34.9662338 C83,35.0675325 83,35.161039 83,35.2545455 L84.1108539,36.8051948 C84.3332047,37.0935065 84.4448302,37.4831169 84.3332047,37.8727273 L83.7777778,39.5168831 Z" id="Path" fill="#6097FD" fill-rule="nonzero"></path>
            <path d="M61.7777778,30.5168831 C61.6670525,30.7116883 61.8885031,30.8987013 62.1108539,31 C62.2224794,31 62.3332047,31 62.4448302,31 L64.2227366,30.0337662 C64.5558128,29.838961 65.0005144,29.7376623 65.4443158,29.838961 L67.444573,30.3220779 C67.6669239,30.4155844 67.8892747,30.2285714 68,30.0337662 C68,29.9324675 68,29.838961 68,29.7376623 L66.8891461,28.1948052 C66.55607,28 66.55607,27.5168831 66.6667953,27.2285714 L67.2222222,25.4831169 C67.3338477,25.2883117 67.1114969,25.0935065 66.8891461,25 C66.7784208,25 66.6667953,25 66.55607,25 L64.7781636,25.9662338 C64.4441872,26.161039 64.0003858,26.2545455 63.5556842,26.161039 L61.555427,25.6779221 C61.3330761,25.5844156 61.1107253,25.7714286 61,25.9662338 C61,26.0675325 61,26.161039 61,26.2545455 L62.1108539,27.8051948 C62.3332047,28.0935065 62.4448302,28.4831169 62.3332047,28.8727273 L61.7777778,30.5168831 Z" id="Path" fill="url(#linearGradient-21)" fill-rule="nonzero"></path>
            <line x1="11" y1="108.5" x2="105" y2="108.5" id="Path" stroke="#B1B9CC" stroke-width="2" stroke-linecap="round" stroke-linejoin="round"></line>
            <line x1="4" y1="108.5" x2="8" y2="108.5" id="Path" stroke="#B1B9CC" stroke-width="2" stroke-linecap="round" stroke-linejoin="round"></line>
        </g>
    </g>
</svg>